solid OpenSCAD_Model
  facet normal -0 0 -1
    outer loop
      vertex -8 0 0
      vertex -7.76753 1.91452 0
      vertex -7.76753 -1.91452 0
    endloop
  endfacet
  facet normal 0 -0 -1
    outer loop
      vertex -7.76753 -1.91452 0
      vertex -7.76753 1.91452 0
      vertex -7.08365 3.71778 0
    endloop
  endfacet
  facet normal 0 0 -1
    outer loop
      vertex -7.76753 -1.91452 0
      vertex -7.08365 3.71778 0
      vertex -5.98809 5.30498 0
    endloop
  endfacet
  facet normal 0 0 -1
    outer loop
      vertex -7.76753 -1.91452 0
      vertex -5.98809 5.30498 0
      vertex -4.54452 6.58387 0
    endloop
  endfacet
  facet normal 0 0 -1
    outer loop
      vertex -7.76753 -1.91452 0
      vertex -4.54452 6.58387 0
      vertex -2.83684 7.48013 0
    endloop
  endfacet
  facet normal 0 0 -1
    outer loop
      vertex -7.76753 -1.91452 0
      vertex -2.83684 7.48013 0
      vertex -0.964293 7.94167 0
    endloop
  endfacet
  facet normal 0 0 -1
    outer loop
      vertex -7.76753 -1.91452 0
      vertex -0.964293 7.94167 0
      vertex 0 7.94167 0
    endloop
  endfacet
  facet normal 0 0 -1
    outer loop
      vertex 0 45.0583 0
      vertex -0.964293 45.0583 0
      vertex -2.83684 45.5199 0
    endloop
  endfacet
  facet normal -0 -0 -1
    outer loop
      vertex -2.83684 45.5199 0
      vertex -4.54452 46.4161 0
      vertex 0 45.0583 0
    endloop
  endfacet
  facet normal 0 0 -1
    outer loop
      vertex 0 45.0583 0
      vertex -4.54452 46.4161 0
      vertex -5.98809 47.695 0
    endloop
  endfacet
  facet normal 0 0 -1
    outer loop
      vertex 0 45.0583 0
      vertex -5.98809 47.695 0
      vertex -7.08365 49.2822 0
    endloop
  endfacet
  facet normal 0 0 -1
    outer loop
      vertex 0 45.0583 0
      vertex -7.08365 49.2822 0
      vertex -7.76753 51.0855 0
    endloop
  endfacet
  facet normal 0 0 -1
    outer loop
      vertex 0 45.0583 0
      vertex -7.76753 51.0855 0
      vertex -8 53 0
    endloop
  endfacet
  facet normal 0 0 -1
    outer loop
      vertex 0 45.0583 0
      vertex -8 53 0
      vertex -7.76753 54.9145 0
    endloop
  endfacet
  facet normal 0 0 -1
    outer loop
      vertex 0 45.0583 0
      vertex -7.76753 54.9145 0
      vertex -7.08365 56.7178 0
    endloop
  endfacet
  facet normal 0 0 -1
    outer loop
      vertex 0 45.0583 0
      vertex -7.08365 56.7178 0
      vertex -5.98809 58.305 0
    endloop
  endfacet
  facet normal 0 0 -1
    outer loop
      vertex 0 45.0583 0
      vertex -5.98809 58.305 0
      vertex -4.54452 59.5839 0
    endloop
  endfacet
  facet normal 0 0 -1
    outer loop
      vertex 0 45.0583 0
      vertex -4.54452 59.5839 0
      vertex -2.83684 60.4801 0
    endloop
  endfacet
  facet normal 0 0 -1
    outer loop
      vertex 0 45.0583 0
      vertex -2.83684 60.4801 0
      vertex -0.964293 60.9417 0
    endloop
  endfacet
  facet normal 0 -0 -1
    outer loop
      vertex 0 45.0583 0
      vertex -0.964293 60.9417 0
      vertex 0.964293 60.9417 0
    endloop
  endfacet
  facet normal -0 0 -1
    outer loop
      vertex 0 45.0583 0
      vertex 0.964293 60.9417 0
      vertex 0 7.94167 0
    endloop
  endfacet
  facet normal 0 0 -1
    outer loop
      vertex 0 7.94167 0
      vertex 0.964293 60.9417 0
      vertex 2.83684 60.4801 0
    endloop
  endfacet
  facet normal 0 0 -1
    outer loop
      vertex 0 7.94167 0
      vertex 2.83684 60.4801 0
      vertex 4.54452 59.5839 0
    endloop
  endfacet
  facet normal 0 0 -1
    outer loop
      vertex 0 7.94167 0
      vertex 4.54452 59.5839 0
      vertex 5.98809 58.305 0
    endloop
  endfacet
  facet normal 0 0 -1
    outer loop
      vertex 0 7.94167 0
      vertex 5.98809 58.305 0
      vertex 7.08365 56.7178 0
    endloop
  endfacet
  facet normal 0 0 -1
    outer loop
      vertex 0 7.94167 0
      vertex 7.08365 56.7178 0
      vertex 7.76753 54.9145 0
    endloop
  endfacet
  facet normal 0 0 -1
    outer loop
      vertex 0 7.94167 0
      vertex 7.76753 54.9145 0
      vertex 7.81787 54.5 0
    endloop
  endfacet
  facet normal 0 0 -1
    outer loop
      vertex 0 7.94167 0
      vertex 7.81787 54.5 0
      vertex 35.25 54.5 0
    endloop
  endfacet
  facet normal 0 0 -1
    outer loop
      vertex 0 7.94167 0
      vertex 35.25 54.5 0
      vertex 35.25 50 0
    endloop
  endfacet
  facet normal -0 0 -1
    outer loop
      vertex 0 7.94167 0
      vertex 35.25 50 0
      vertex -7.76753 -1.91452 0
    endloop
  endfacet
  facet normal 0 0 -1
    outer loop
      vertex -7.76753 -1.91452 0
      vertex 35.25 50 0
      vertex 58.75 50 0
    endloop
  endfacet
  facet normal -0 0 -1
    outer loop
      vertex 58.75 50 0
      vertex 86.1821 54.5 0
      vertex -7.76753 -1.91452 0
    endloop
  endfacet
  facet normal 0 0 -1
    outer loop
      vertex 58.75 54.5 0
      vertex 86.1821 54.5 0
      vertex 58.75 50 0
    endloop
  endfacet
  facet normal 0 0 -1
    outer loop
      vertex 86.1821 54.5 0
      vertex 86.2325 54.9145 0
      vertex 86.9164 56.7178 0
    endloop
  endfacet
  facet normal 0 0 -1
    outer loop
      vertex 86.1821 54.5 0
      vertex 86.9164 56.7178 0
      vertex 88.0119 58.305 0
    endloop
  endfacet
  facet normal 0 0 -1
    outer loop
      vertex 86.1821 54.5 0
      vertex 88.0119 58.305 0
      vertex 89.4555 59.5839 0
    endloop
  endfacet
  facet normal 0 0 -1
    outer loop
      vertex 86.1821 54.5 0
      vertex 89.4555 59.5839 0
      vertex 91.1632 60.4801 0
    endloop
  endfacet
  facet normal 0 0 -1
    outer loop
      vertex 86.1821 54.5 0
      vertex 91.1632 60.4801 0
      vertex 93.0357 60.9417 0
    endloop
  endfacet
  facet normal 0 0 -1
    outer loop
      vertex 86.1821 54.5 0
      vertex 93.0357 60.9417 0
      vertex 94.9643 60.9417 0
    endloop
  endfacet
  facet normal 0 0 -1
    outer loop
      vertex 86.1821 54.5 0
      vertex 94.9643 60.9417 0
      vertex 96.8368 60.4801 0
    endloop
  endfacet
  facet normal -0 0 -1
    outer loop
      vertex 86.1821 54.5 0
      vertex 96.8368 60.4801 0
      vertex -7.76753 -1.91452 0
    endloop
  endfacet
  facet normal 0 0 -1
    outer loop
      vertex -7.76753 -1.91452 0
      vertex 96.8368 60.4801 0
      vertex 98.5445 59.5839 0
    endloop
  endfacet
  facet normal 0 0 -1
    outer loop
      vertex -7.76753 -1.91452 0
      vertex 98.5445 59.5839 0
      vertex 99.9881 58.305 0
    endloop
  endfacet
  facet normal 0 0 -1
    outer loop
      vertex -7.76753 -1.91452 0
      vertex 99.9881 58.305 0
      vertex 101.084 56.7178 0
    endloop
  endfacet
  facet normal 0 0 -1
    outer loop
      vertex -7.76753 -1.91452 0
      vertex 101.084 56.7178 0
      vertex 101.768 54.9145 0
    endloop
  endfacet
  facet normal 0 0 -1
    outer loop
      vertex -7.76753 -1.91452 0
      vertex 101.768 54.9145 0
      vertex 102 53 0
    endloop
  endfacet
  facet normal 0 0 -1
    outer loop
      vertex -7.76753 -1.91452 0
      vertex 102 53 0
      vertex 101.768 51.0855 0
    endloop
  endfacet
  facet normal 0 0 -1
    outer loop
      vertex -7.76753 -1.91452 0
      vertex 101.768 51.0855 0
      vertex 101.084 49.2822 0
    endloop
  endfacet
  facet normal 0 0 -1
    outer loop
      vertex -7.76753 -1.91452 0
      vertex 101.084 49.2822 0
      vertex 99.9881 47.695 0
    endloop
  endfacet
  facet normal 0 0 -1
    outer loop
      vertex 95.5 45.1904 0
      vertex 99.9881 47.695 0
      vertex 98.5445 46.4161 0
    endloop
  endfacet
  facet normal 0 0 -1
    outer loop
      vertex -7.76753 -1.91452 0
      vertex 99.9881 47.695 0
      vertex 95.5 45.1904 0
    endloop
  endfacet
  facet normal 0 0 -1
    outer loop
      vertex 95.5 7.80963 0
      vertex -7.76753 -1.91452 0
      vertex 95.5 45.1904 0
    endloop
  endfacet
  facet normal 0 0 -1
    outer loop
      vertex 91.1632 -7.48013 0
      vertex 94.9643 -7.94167 0
      vertex 93.0357 -7.94167 0
    endloop
  endfacet
  facet normal 0 0 -1
    outer loop
      vertex 95.5 7.80963 0
      vertex 96.8368 7.48013 0
      vertex -7.76753 -1.91452 0
    endloop
  endfacet
  facet normal 0 0 -1
    outer loop
      vertex 96.8368 7.48013 0
      vertex 98.5445 6.58387 0
      vertex -7.76753 -1.91452 0
    endloop
  endfacet
  facet normal 0 0 -1
    outer loop
      vertex -7.76753 -1.91452 0
      vertex 98.5445 6.58387 0
      vertex 99.9881 5.30498 0
    endloop
  endfacet
  facet normal 0 0 -1
    outer loop
      vertex -7.76753 -1.91452 0
      vertex 99.9881 5.30498 0
      vertex 101.084 3.71778 0
    endloop
  endfacet
  facet normal 0 0 -1
    outer loop
      vertex -7.76753 -1.91452 0
      vertex 101.084 3.71778 0
      vertex 101.768 1.91452 0
    endloop
  endfacet
  facet normal 0 0 -1
    outer loop
      vertex 7.81787 -1.5 0
      vertex 101.768 1.91452 0
      vertex 102 0 0
    endloop
  endfacet
  facet normal -0 0 -1
    outer loop
      vertex 86.1821 -1.5 0
      vertex 102 0 0
      vertex 86.2325 -1.91452 0
    endloop
  endfacet
  facet normal 0 0 -1
    outer loop
      vertex 86.2325 -1.91452 0
      vertex 101.768 -1.91452 0
      vertex 101.084 -3.71778 0
    endloop
  endfacet
  facet normal 0 0 -1
    outer loop
      vertex 86.9164 -3.71778 0
      vertex 101.084 -3.71778 0
      vertex 99.9881 -5.30498 0
    endloop
  endfacet
  facet normal 0 0 -1
    outer loop
      vertex 88.0119 -5.30498 0
      vertex 99.9881 -5.30498 0
      vertex 98.5445 -6.58387 0
    endloop
  endfacet
  facet normal 0 0 -1
    outer loop
      vertex 89.4555 -6.58387 0
      vertex 98.5445 -6.58387 0
      vertex 96.8368 -7.48013 0
    endloop
  endfacet
  facet normal 0 0 -1
    outer loop
      vertex 91.1632 -7.48013 0
      vertex 96.8368 -7.48013 0
      vertex 94.9643 -7.94167 0
    endloop
  endfacet
  facet normal 0 0 -1
    outer loop
      vertex 89.4555 -6.58387 0
      vertex 96.8368 -7.48013 0
      vertex 91.1632 -7.48013 0
    endloop
  endfacet
  facet normal 0 0 -1
    outer loop
      vertex 88.0119 -5.30498 0
      vertex 98.5445 -6.58387 0
      vertex 89.4555 -6.58387 0
    endloop
  endfacet
  facet normal 0 0 -1
    outer loop
      vertex 86.9164 -3.71778 0
      vertex 99.9881 -5.30498 0
      vertex 88.0119 -5.30498 0
    endloop
  endfacet
  facet normal 0 0 -1
    outer loop
      vertex 86.2325 -1.91452 0
      vertex 101.084 -3.71778 0
      vertex 86.9164 -3.71778 0
    endloop
  endfacet
  facet normal 0 0 -1
    outer loop
      vertex 102 0 0
      vertex 101.768 -1.91452 0
      vertex 86.2325 -1.91452 0
    endloop
  endfacet
  facet normal -0 0 -1
    outer loop
      vertex 7.81787 -1.5 0
      vertex 102 0 0
      vertex 86.1821 -1.5 0
    endloop
  endfacet
  facet normal 0 -0 -1
    outer loop
      vertex 7.08365 -3.71778 0
      vertex -7.76753 -1.91452 0
      vertex 7.76753 -1.91452 0
    endloop
  endfacet
  facet normal 0 0 -1
    outer loop
      vertex -7.76753 -1.91452 0
      vertex 101.768 1.91452 0
      vertex 7.81787 -1.5 0
    endloop
  endfacet
  facet normal 0 -0 -1
    outer loop
      vertex 7.76753 -1.91452 0
      vertex -7.76753 -1.91452 0
      vertex 7.81787 -1.5 0
    endloop
  endfacet
  facet normal 0 0 -1
    outer loop
      vertex -7.76753 -1.91452 0
      vertex 7.08365 -3.71778 0
      vertex 5.98809 -5.30498 0
    endloop
  endfacet
  facet normal 0 0 -1
    outer loop
      vertex -7.76753 -1.91452 0
      vertex 5.98809 -5.30498 0
      vertex 4.54452 -6.58387 0
    endloop
  endfacet
  facet normal 0 0 -1
    outer loop
      vertex -7.76753 -1.91452 0
      vertex 4.54452 -6.58387 0
      vertex 2.83684 -7.48013 0
    endloop
  endfacet
  facet normal 0 0 -1
    outer loop
      vertex -7.76753 -1.91452 0
      vertex 2.83684 -7.48013 0
      vertex 0.964293 -7.94167 0
    endloop
  endfacet
  facet normal 0 0 -1
    outer loop
      vertex -7.76753 -1.91452 0
      vertex 0.964293 -7.94167 0
      vertex -0.964293 -7.94167 0
    endloop
  endfacet
  facet normal 0 0 -1
    outer loop
      vertex -7.76753 -1.91452 0
      vertex -0.964293 -7.94167 0
      vertex -2.83684 -7.48013 0
    endloop
  endfacet
  facet normal 0 0 -1
    outer loop
      vertex -7.76753 -1.91452 0
      vertex -2.83684 -7.48013 0
      vertex -4.54452 -6.58387 0
    endloop
  endfacet
  facet normal 0 0 -1
    outer loop
      vertex -7.76753 -1.91452 0
      vertex -4.54452 -6.58387 0
      vertex -5.98809 -5.30498 0
    endloop
  endfacet
  facet normal 0 0 -1
    outer loop
      vertex -7.76753 -1.91452 0
      vertex -5.98809 -5.30498 0
      vertex -7.08365 -3.71778 0
    endloop
  endfacet
  facet normal 0 0 -1
    outer loop
      vertex 95.5 45.1904 0
      vertex 98.5445 46.4161 0
      vertex 96.8368 45.5199 0
    endloop
  endfacet
  facet normal -0.992709 0.120536 0
    outer loop
      vertex -8 0 0
      vertex -8 0 0.2
      vertex -7.76753 1.91452 0
    endloop
  endfacet
  facet normal -0.992709 0.120536 0
    outer loop
      vertex -7.76753 1.91452 0
      vertex -8 0 0.2
      vertex -7.76753 1.91452 0.2
    endloop
  endfacet
  facet normal -0.992709 -0.120536 -0
    outer loop
      vertex -8 0 0
      vertex -7.76753 -1.91452 0
      vertex -8 0 0.2
    endloop
  endfacet
  facet normal -0.992709 -0.120536 0
    outer loop
      vertex -8 0 0.2
      vertex -7.76753 -1.91452 0
      vertex -7.76753 -1.91452 0.2
    endloop
  endfacet
  facet normal -0.935016 -0.354605 -0
    outer loop
      vertex -7.76753 -1.91452 0
      vertex -7.08365 -3.71778 0
      vertex -7.76753 -1.91452 0.2
    endloop
  endfacet
  facet normal -0.935016 -0.354605 0
    outer loop
      vertex -7.76753 -1.91452 0.2
      vertex -7.08365 -3.71778 0
      vertex -7.08365 -3.71778 0.2
    endloop
  endfacet
  facet normal -0.822984 -0.568065 -0
    outer loop
      vertex -7.08365 -3.71778 0
      vertex -5.98809 -5.30498 0
      vertex -7.08365 -3.71778 0.2
    endloop
  endfacet
  facet normal -0.822984 -0.568065 0
    outer loop
      vertex -7.08365 -3.71778 0.2
      vertex -5.98809 -5.30498 0
      vertex -5.98809 -5.30498 0.2
    endloop
  endfacet
  facet normal -0.663123 -0.748511 0
    outer loop
      vertex -5.98809 -5.30498 0.2
      vertex -5.98809 -5.30498 0
      vertex -4.54452 -6.58387 0
    endloop
  endfacet
  facet normal -0.663123 -0.748511 0
    outer loop
      vertex -4.54452 -6.58387 0.2
      vertex -5.98809 -5.30498 0.2
      vertex -4.54452 -6.58387 0
    endloop
  endfacet
  facet normal -0.464723 -0.885456 0
    outer loop
      vertex -4.54452 -6.58387 0.2
      vertex -4.54452 -6.58387 0
      vertex -2.83684 -7.48013 0
    endloop
  endfacet
  facet normal -0.464723 -0.885456 0
    outer loop
      vertex -2.83684 -7.48013 0.2
      vertex -4.54452 -6.58387 0.2
      vertex -2.83684 -7.48013 0
    endloop
  endfacet
  facet normal -0.239316 -0.970942 0
    outer loop
      vertex -2.83684 -7.48013 0.2
      vertex -2.83684 -7.48013 0
      vertex -0.964293 -7.94167 0
    endloop
  endfacet
  facet normal -0.239316 -0.970942 0
    outer loop
      vertex -0.964293 -7.94167 0.2
      vertex -2.83684 -7.48013 0.2
      vertex -0.964293 -7.94167 0
    endloop
  endfacet
  facet normal 0 -1 0
    outer loop
      vertex -0.964293 -7.94167 0.2
      vertex -0.964293 -7.94167 0
      vertex 0.964293 -7.94167 0
    endloop
  endfacet
  facet normal 0 -1 0
    outer loop
      vertex 0.964293 -7.94167 0.2
      vertex -0.964293 -7.94167 0.2
      vertex 0.964293 -7.94167 0
    endloop
  endfacet
  facet normal 0.239316 -0.970942 0
    outer loop
      vertex 0.964293 -7.94167 0.2
      vertex 0.964293 -7.94167 0
      vertex 2.83684 -7.48013 0
    endloop
  endfacet
  facet normal 0.239316 -0.970942 0
    outer loop
      vertex 2.83684 -7.48013 0.2
      vertex 0.964293 -7.94167 0.2
      vertex 2.83684 -7.48013 0
    endloop
  endfacet
  facet normal 0.464723 -0.885456 0
    outer loop
      vertex 2.83684 -7.48013 0.2
      vertex 2.83684 -7.48013 0
      vertex 4.54452 -6.58387 0
    endloop
  endfacet
  facet normal 0.464723 -0.885456 0
    outer loop
      vertex 4.54452 -6.58387 0.2
      vertex 2.83684 -7.48013 0.2
      vertex 4.54452 -6.58387 0
    endloop
  endfacet
  facet normal 0.663123 -0.748511 0
    outer loop
      vertex 4.54452 -6.58387 0.2
      vertex 4.54452 -6.58387 0
      vertex 5.98809 -5.30498 0
    endloop
  endfacet
  facet normal 0.663123 -0.748511 0
    outer loop
      vertex 5.98809 -5.30498 0.2
      vertex 4.54452 -6.58387 0.2
      vertex 5.98809 -5.30498 0
    endloop
  endfacet
  facet normal 0.822984 -0.568065 0
    outer loop
      vertex 5.98809 -5.30498 0.2
      vertex 5.98809 -5.30498 0
      vertex 7.08365 -3.71778 0
    endloop
  endfacet
  facet normal 0.822984 -0.568065 0
    outer loop
      vertex 7.08365 -3.71778 0.2
      vertex 5.98809 -5.30498 0.2
      vertex 7.08365 -3.71778 0
    endloop
  endfacet
  facet normal 0.935016 -0.354605 0
    outer loop
      vertex 7.08365 -3.71778 0.2
      vertex 7.08365 -3.71778 0
      vertex 7.76753 -1.91452 0
    endloop
  endfacet
  facet normal 0.935016 -0.354605 0
    outer loop
      vertex 7.76753 -1.91452 0.2
      vertex 7.08365 -3.71778 0.2
      vertex 7.76753 -1.91452 0
    endloop
  endfacet
  facet normal 0.992709 -0.120536 0
    outer loop
      vertex 7.76753 -1.91452 0.2
      vertex 7.76753 -1.91452 0
      vertex 7.81787 -1.5 0
    endloop
  endfacet
  facet normal 0.992709 -0.120536 0
    outer loop
      vertex 7.81787 -1.5 0.2
      vertex 7.76753 -1.91452 0.2
      vertex 7.81787 -1.5 0
    endloop
  endfacet
  facet normal -0 -1 -0
    outer loop
      vertex 86.1821 -1.5 0.2
      vertex 95.5 -1.5 0.2
      vertex 0 -1.5 4
    endloop
  endfacet
  facet normal 0 -1 0
    outer loop
      vertex 0 -1.5 4
      vertex 0 -1.5 0.2
      vertex 7.81787 -1.5 0.2
    endloop
  endfacet
  facet normal 0 -1 0
    outer loop
      vertex 86.1821 -1.5 0
      vertex 0 -1.5 4
      vertex 7.81787 -1.5 0.2
    endloop
  endfacet
  facet normal -0 -1 -0
    outer loop
      vertex 7.81787 -1.5 0
      vertex 86.1821 -1.5 0
      vertex 7.81787 -1.5 0.2
    endloop
  endfacet
  facet normal 0 -1 0
    outer loop
      vertex 86.1821 -1.5 0
      vertex 86.1821 -1.5 0.2
      vertex 0 -1.5 4
    endloop
  endfacet
  facet normal 0 -1 0
    outer loop
      vertex 95.5 -1.5 0.2
      vertex 95.5 -1.5 4
      vertex 0 -1.5 4
    endloop
  endfacet
  facet normal -0.992709 -0.120536 -0
    outer loop
      vertex 86.1821 -1.5 0
      vertex 86.2325 -1.91452 0
      vertex 86.1821 -1.5 0.2
    endloop
  endfacet
  facet normal -0.992709 -0.120536 0
    outer loop
      vertex 86.1821 -1.5 0.2
      vertex 86.2325 -1.91452 0
      vertex 86.2325 -1.91452 0.2
    endloop
  endfacet
  facet normal -0.935016 -0.354605 -0
    outer loop
      vertex 86.2325 -1.91452 0
      vertex 86.9164 -3.71778 0
      vertex 86.2325 -1.91452 0.2
    endloop
  endfacet
  facet normal -0.935016 -0.354605 0
    outer loop
      vertex 86.2325 -1.91452 0.2
      vertex 86.9164 -3.71778 0
      vertex 86.9164 -3.71778 0.2
    endloop
  endfacet
  facet normal -0.822984 -0.568065 -0
    outer loop
      vertex 86.9164 -3.71778 0
      vertex 88.0119 -5.30498 0
      vertex 86.9164 -3.71778 0.2
    endloop
  endfacet
  facet normal -0.822984 -0.568065 0
    outer loop
      vertex 86.9164 -3.71778 0.2
      vertex 88.0119 -5.30498 0
      vertex 88.0119 -5.30498 0.2
    endloop
  endfacet
  facet normal -0.663123 -0.748511 0
    outer loop
      vertex 88.0119 -5.30498 0.2
      vertex 88.0119 -5.30498 0
      vertex 89.4555 -6.58387 0
    endloop
  endfacet
  facet normal -0.663123 -0.748511 0
    outer loop
      vertex 89.4555 -6.58387 0.2
      vertex 88.0119 -5.30498 0.2
      vertex 89.4555 -6.58387 0
    endloop
  endfacet
  facet normal -0.464723 -0.885456 0
    outer loop
      vertex 89.4555 -6.58387 0.2
      vertex 89.4555 -6.58387 0
      vertex 91.1632 -7.48013 0
    endloop
  endfacet
  facet normal -0.464723 -0.885456 0
    outer loop
      vertex 91.1632 -7.48013 0.2
      vertex 89.4555 -6.58387 0.2
      vertex 91.1632 -7.48013 0
    endloop
  endfacet
  facet normal -0.239316 -0.970942 0
    outer loop
      vertex 91.1632 -7.48013 0.2
      vertex 91.1632 -7.48013 0
      vertex 93.0357 -7.94167 0
    endloop
  endfacet
  facet normal -0.239316 -0.970942 0
    outer loop
      vertex 93.0357 -7.94167 0.2
      vertex 91.1632 -7.48013 0.2
      vertex 93.0357 -7.94167 0
    endloop
  endfacet
  facet normal 0 -1 0
    outer loop
      vertex 93.0357 -7.94167 0.2
      vertex 93.0357 -7.94167 0
      vertex 94.9643 -7.94167 0
    endloop
  endfacet
  facet normal 0 -1 0
    outer loop
      vertex 94.9643 -7.94167 0.2
      vertex 93.0357 -7.94167 0.2
      vertex 94.9643 -7.94167 0
    endloop
  endfacet
  facet normal 0.239316 -0.970942 0
    outer loop
      vertex 94.9643 -7.94167 0.2
      vertex 94.9643 -7.94167 0
      vertex 96.8368 -7.48013 0
    endloop
  endfacet
  facet normal 0.239316 -0.970942 0
    outer loop
      vertex 96.8368 -7.48013 0.2
      vertex 94.9643 -7.94167 0.2
      vertex 96.8368 -7.48013 0
    endloop
  endfacet
  facet normal 0.464723 -0.885456 0
    outer loop
      vertex 96.8368 -7.48013 0.2
      vertex 96.8368 -7.48013 0
      vertex 98.5445 -6.58387 0
    endloop
  endfacet
  facet normal 0.464723 -0.885456 0
    outer loop
      vertex 98.5445 -6.58387 0.2
      vertex 96.8368 -7.48013 0.2
      vertex 98.5445 -6.58387 0
    endloop
  endfacet
  facet normal 0.663123 -0.748511 0
    outer loop
      vertex 98.5445 -6.58387 0.2
      vertex 98.5445 -6.58387 0
      vertex 99.9881 -5.30498 0
    endloop
  endfacet
  facet normal 0.663123 -0.748511 0
    outer loop
      vertex 99.9881 -5.30498 0.2
      vertex 98.5445 -6.58387 0.2
      vertex 99.9881 -5.30498 0
    endloop
  endfacet
  facet normal 0.822984 -0.568065 0
    outer loop
      vertex 99.9881 -5.30498 0.2
      vertex 99.9881 -5.30498 0
      vertex 101.084 -3.71778 0
    endloop
  endfacet
  facet normal 0.822984 -0.568065 0
    outer loop
      vertex 101.084 -3.71778 0.2
      vertex 99.9881 -5.30498 0.2
      vertex 101.084 -3.71778 0
    endloop
  endfacet
  facet normal 0.935016 -0.354605 0
    outer loop
      vertex 101.084 -3.71778 0.2
      vertex 101.084 -3.71778 0
      vertex 101.768 -1.91452 0
    endloop
  endfacet
  facet normal 0.935016 -0.354605 0
    outer loop
      vertex 101.768 -1.91452 0.2
      vertex 101.084 -3.71778 0.2
      vertex 101.768 -1.91452 0
    endloop
  endfacet
  facet normal 0.992709 -0.120536 0
    outer loop
      vertex 101.768 -1.91452 0.2
      vertex 101.768 -1.91452 0
      vertex 102 0 0
    endloop
  endfacet
  facet normal 0.992709 -0.120536 0
    outer loop
      vertex 102 0 0.2
      vertex 101.768 -1.91452 0.2
      vertex 102 0 0
    endloop
  endfacet
  facet normal 0.992709 0.120536 0
    outer loop
      vertex 102 0 0
      vertex 101.768 1.91452 0
      vertex 101.768 1.91452 0.2
    endloop
  endfacet
  facet normal 0.992709 0.120536 -0
    outer loop
      vertex 102 0 0.2
      vertex 102 0 0
      vertex 101.768 1.91452 0.2
    endloop
  endfacet
  facet normal 0.935016 0.354605 0
    outer loop
      vertex 101.768 1.91452 0
      vertex 101.084 3.71778 0
      vertex 101.084 3.71778 0.2
    endloop
  endfacet
  facet normal 0.935016 0.354605 -0
    outer loop
      vertex 101.768 1.91452 0.2
      vertex 101.768 1.91452 0
      vertex 101.084 3.71778 0.2
    endloop
  endfacet
  facet normal 0.822984 0.568065 0
    outer loop
      vertex 101.084 3.71778 0
      vertex 99.9881 5.30498 0
      vertex 99.9881 5.30498 0.2
    endloop
  endfacet
  facet normal 0.822984 0.568065 -0
    outer loop
      vertex 101.084 3.71778 0.2
      vertex 101.084 3.71778 0
      vertex 99.9881 5.30498 0.2
    endloop
  endfacet
  facet normal 0.663123 0.748511 0
    outer loop
      vertex 98.5445 6.58387 0
      vertex 98.5445 6.58387 0.2
      vertex 99.9881 5.30498 0
    endloop
  endfacet
  facet normal 0.663123 0.748511 0
    outer loop
      vertex 99.9881 5.30498 0
      vertex 98.5445 6.58387 0.2
      vertex 99.9881 5.30498 0.2
    endloop
  endfacet
  facet normal 0.464723 0.885456 0
    outer loop
      vertex 96.8368 7.48013 0
      vertex 96.8368 7.48013 0.2
      vertex 98.5445 6.58387 0
    endloop
  endfacet
  facet normal 0.464723 0.885456 0
    outer loop
      vertex 98.5445 6.58387 0
      vertex 96.8368 7.48013 0.2
      vertex 98.5445 6.58387 0.2
    endloop
  endfacet
  facet normal 0.239316 0.970942 0
    outer loop
      vertex 95.5 7.80963 0
      vertex 95.5 7.80963 0.2
      vertex 96.8368 7.48013 0
    endloop
  endfacet
  facet normal 0.239316 0.970942 0
    outer loop
      vertex 96.8368 7.48013 0
      vertex 95.5 7.80963 0.2
      vertex 96.8368 7.48013 0.2
    endloop
  endfacet
  facet normal 1 0 -0
    outer loop
      vertex 95.5 47.5 3.5
      vertex 95.5 47.5 0.5
      vertex 95.5 54.5 0.2
    endloop
  endfacet
  facet normal 1 0 -0
    outer loop
      vertex 95.5 -1.5 4
      vertex 95.5 -1.5 0.2
      vertex 95.5 7.80963 0.2
    endloop
  endfacet
  facet normal 1 -0 0
    outer loop
      vertex 95.5 36.5 0.5
      vertex 95.5 -1.5 4
      vertex 95.5 7.80963 0.2
    endloop
  endfacet
  facet normal 1 0 0
    outer loop
      vertex 95.5 7.80963 0
      vertex 95.5 45.1904 0
      vertex 95.5 7.80963 0.2
    endloop
  endfacet
  facet normal 1 0 0
    outer loop
      vertex 95.5 36.5 3.5
      vertex 95.5 54.5 4
      vertex 95.5 -1.5 4
    endloop
  endfacet
  facet normal 1 0 0
    outer loop
      vertex 95.5 45.1904 0
      vertex 95.5 36.5 0.5
      vertex 95.5 7.80963 0.2
    endloop
  endfacet
  facet normal 1 -0 0
    outer loop
      vertex 95.5 47.5 3.5
      vertex 95.5 54.5 4
      vertex 95.5 36.5 3.5
    endloop
  endfacet
  facet normal 1 0 0
    outer loop
      vertex 95.5 54.5 0.2
      vertex 95.5 54.5 4
      vertex 95.5 47.5 3.5
    endloop
  endfacet
  facet normal 1 0 0
    outer loop
      vertex 95.5 36.5 0.5
      vertex 95.5 36.5 3.5
      vertex 95.5 -1.5 4
    endloop
  endfacet
  facet normal 1 0 0
    outer loop
      vertex 95.5 45.1904 0.2
      vertex 95.5 54.5 0.2
      vertex 95.5 47.5 0.5
    endloop
  endfacet
  facet normal 1 -0 0
    outer loop
      vertex 95.5 45.1904 0.2
      vertex 95.5 36.5 0.5
      vertex 95.5 45.1904 0
    endloop
  endfacet
  facet normal 1 0 0
    outer loop
      vertex 95.5 47.5 0.5
      vertex 95.5 36.5 0.5
      vertex 95.5 45.1904 0.2
    endloop
  endfacet
  facet normal 0.239316 -0.970942 0
    outer loop
      vertex 95.5 45.1904 0.2
      vertex 95.5 45.1904 0
      vertex 96.8368 45.5199 0
    endloop
  endfacet
  facet normal 0.239316 -0.970942 0
    outer loop
      vertex 96.8368 45.5199 0.2
      vertex 95.5 45.1904 0.2
      vertex 96.8368 45.5199 0
    endloop
  endfacet
  facet normal 0.464723 -0.885456 0
    outer loop
      vertex 96.8368 45.5199 0.2
      vertex 96.8368 45.5199 0
      vertex 98.5445 46.4161 0
    endloop
  endfacet
  facet normal 0.464723 -0.885456 0
    outer loop
      vertex 98.5445 46.4161 0.2
      vertex 96.8368 45.5199 0.2
      vertex 98.5445 46.4161 0
    endloop
  endfacet
  facet normal 0.663123 -0.748511 0
    outer loop
      vertex 98.5445 46.4161 0.2
      vertex 98.5445 46.4161 0
      vertex 99.9881 47.695 0
    endloop
  endfacet
  facet normal 0.663123 -0.748511 0
    outer loop
      vertex 99.9881 47.695 0.2
      vertex 98.5445 46.4161 0.2
      vertex 99.9881 47.695 0
    endloop
  endfacet
  facet normal 0.822984 -0.568065 0
    outer loop
      vertex 99.9881 47.695 0.2
      vertex 99.9881 47.695 0
      vertex 101.084 49.2822 0
    endloop
  endfacet
  facet normal 0.822984 -0.568065 0
    outer loop
      vertex 101.084 49.2822 0.2
      vertex 99.9881 47.695 0.2
      vertex 101.084 49.2822 0
    endloop
  endfacet
  facet normal 0.935016 -0.354605 0
    outer loop
      vertex 101.084 49.2822 0.2
      vertex 101.084 49.2822 0
      vertex 101.768 51.0855 0
    endloop
  endfacet
  facet normal 0.935016 -0.354605 0
    outer loop
      vertex 101.768 51.0855 0.2
      vertex 101.084 49.2822 0.2
      vertex 101.768 51.0855 0
    endloop
  endfacet
  facet normal 0.992709 -0.120536 0
    outer loop
      vertex 101.768 51.0855 0.2
      vertex 101.768 51.0855 0
      vertex 102 53 0
    endloop
  endfacet
  facet normal 0.992709 -0.120536 0
    outer loop
      vertex 102 53 0.2
      vertex 101.768 51.0855 0.2
      vertex 102 53 0
    endloop
  endfacet
  facet normal 0.992709 0.120536 0
    outer loop
      vertex 102 53 0
      vertex 101.768 54.9145 0
      vertex 101.768 54.9145 0.2
    endloop
  endfacet
  facet normal 0.992709 0.120536 -0
    outer loop
      vertex 102 53 0.2
      vertex 102 53 0
      vertex 101.768 54.9145 0.2
    endloop
  endfacet
  facet normal 0.935016 0.354605 0
    outer loop
      vertex 101.768 54.9145 0
      vertex 101.084 56.7178 0
      vertex 101.084 56.7178 0.2
    endloop
  endfacet
  facet normal 0.935016 0.354605 -0
    outer loop
      vertex 101.768 54.9145 0.2
      vertex 101.768 54.9145 0
      vertex 101.084 56.7178 0.2
    endloop
  endfacet
  facet normal 0.822984 0.568065 0
    outer loop
      vertex 101.084 56.7178 0
      vertex 99.9881 58.305 0
      vertex 99.9881 58.305 0.2
    endloop
  endfacet
  facet normal 0.822984 0.568065 -0
    outer loop
      vertex 101.084 56.7178 0.2
      vertex 101.084 56.7178 0
      vertex 99.9881 58.305 0.2
    endloop
  endfacet
  facet normal 0.663123 0.748511 0
    outer loop
      vertex 98.5445 59.5839 0
      vertex 98.5445 59.5839 0.2
      vertex 99.9881 58.305 0
    endloop
  endfacet
  facet normal 0.663123 0.748511 0
    outer loop
      vertex 99.9881 58.305 0
      vertex 98.5445 59.5839 0.2
      vertex 99.9881 58.305 0.2
    endloop
  endfacet
  facet normal 0.464723 0.885456 0
    outer loop
      vertex 96.8368 60.4801 0
      vertex 96.8368 60.4801 0.2
      vertex 98.5445 59.5839 0
    endloop
  endfacet
  facet normal 0.464723 0.885456 0
    outer loop
      vertex 98.5445 59.5839 0
      vertex 96.8368 60.4801 0.2
      vertex 98.5445 59.5839 0.2
    endloop
  endfacet
  facet normal 0.239316 0.970942 0
    outer loop
      vertex 94.9643 60.9417 0
      vertex 94.9643 60.9417 0.2
      vertex 96.8368 60.4801 0
    endloop
  endfacet
  facet normal 0.239316 0.970942 0
    outer loop
      vertex 96.8368 60.4801 0
      vertex 94.9643 60.9417 0.2
      vertex 96.8368 60.4801 0.2
    endloop
  endfacet
  facet normal 0 1 0
    outer loop
      vertex 93.0357 60.9417 0
      vertex 93.0357 60.9417 0.2
      vertex 94.9643 60.9417 0
    endloop
  endfacet
  facet normal 0 1 0
    outer loop
      vertex 94.9643 60.9417 0
      vertex 93.0357 60.9417 0.2
      vertex 94.9643 60.9417 0.2
    endloop
  endfacet
  facet normal -0.239316 0.970942 0
    outer loop
      vertex 91.1632 60.4801 0
      vertex 91.1632 60.4801 0.2
      vertex 93.0357 60.9417 0
    endloop
  endfacet
  facet normal -0.239316 0.970942 0
    outer loop
      vertex 93.0357 60.9417 0
      vertex 91.1632 60.4801 0.2
      vertex 93.0357 60.9417 0.2
    endloop
  endfacet
  facet normal -0.464723 0.885456 0
    outer loop
      vertex 89.4555 59.5839 0
      vertex 89.4555 59.5839 0.2
      vertex 91.1632 60.4801 0
    endloop
  endfacet
  facet normal -0.464723 0.885456 0
    outer loop
      vertex 91.1632 60.4801 0
      vertex 89.4555 59.5839 0.2
      vertex 91.1632 60.4801 0.2
    endloop
  endfacet
  facet normal -0.663123 0.748511 0
    outer loop
      vertex 88.0119 58.305 0
      vertex 88.0119 58.305 0.2
      vertex 89.4555 59.5839 0
    endloop
  endfacet
  facet normal -0.663123 0.748511 0
    outer loop
      vertex 89.4555 59.5839 0
      vertex 88.0119 58.305 0.2
      vertex 89.4555 59.5839 0.2
    endloop
  endfacet
  facet normal -0.822984 0.568065 0
    outer loop
      vertex 86.9164 56.7178 0
      vertex 86.9164 56.7178 0.2
      vertex 88.0119 58.305 0
    endloop
  endfacet
  facet normal -0.822984 0.568065 0
    outer loop
      vertex 88.0119 58.305 0
      vertex 86.9164 56.7178 0.2
      vertex 88.0119 58.305 0.2
    endloop
  endfacet
  facet normal -0.935016 0.354605 0
    outer loop
      vertex 86.2325 54.9145 0
      vertex 86.2325 54.9145 0.2
      vertex 86.9164 56.7178 0
    endloop
  endfacet
  facet normal -0.935016 0.354605 0
    outer loop
      vertex 86.9164 56.7178 0
      vertex 86.2325 54.9145 0.2
      vertex 86.9164 56.7178 0.2
    endloop
  endfacet
  facet normal -0.992709 0.120536 0
    outer loop
      vertex 86.1821 54.5 0
      vertex 86.1821 54.5 0.2
      vertex 86.2325 54.9145 0
    endloop
  endfacet
  facet normal -0.992709 0.120536 0
    outer loop
      vertex 86.2325 54.9145 0
      vertex 86.1821 54.5 0.2
      vertex 86.2325 54.9145 0.2
    endloop
  endfacet
  facet normal 0 1 0
    outer loop
      vertex 58.75 54.5 0
      vertex 58.75 54.5 4
      vertex 86.1821 54.5 0
    endloop
  endfacet
  facet normal 0 1 0
    outer loop
      vertex 86.1821 54.5 0.2
      vertex 58.75 54.5 4
      vertex 95.5 54.5 4
    endloop
  endfacet
  facet normal 0 1 0
    outer loop
      vertex 86.1821 54.5 0
      vertex 58.75 54.5 4
      vertex 86.1821 54.5 0.2
    endloop
  endfacet
  facet normal 0 1 0
    outer loop
      vertex 86.1821 54.5 0.2
      vertex 95.5 54.5 4
      vertex 95.5 54.5 0.2
    endloop
  endfacet
  facet normal -1 0 0
    outer loop
      vertex 58.75 54.5 4
      vertex 58.75 54.5 0
      vertex 58.75 50 4
    endloop
  endfacet
  facet normal -1 0 0
    outer loop
      vertex 58.75 50 4
      vertex 58.75 54.5 0
      vertex 58.75 50 0
    endloop
  endfacet
  facet normal 0 1 0
    outer loop
      vertex 58.75 50 4
      vertex 58.75 50 0
      vertex 35.25 50 4
    endloop
  endfacet
  facet normal 0 1 -0
    outer loop
      vertex 35.25 50 4
      vertex 58.75 50 0
      vertex 35.25 50 0
    endloop
  endfacet
  facet normal 1 0 0
    outer loop
      vertex 35.25 54.5 0
      vertex 35.25 54.5 4
      vertex 35.25 50 4
    endloop
  endfacet
  facet normal 1 0 0
    outer loop
      vertex 35.25 50 0
      vertex 35.25 54.5 0
      vertex 35.25 50 4
    endloop
  endfacet
  facet normal 0 1 0
    outer loop
      vertex 0 54.5 0.2
      vertex 0 54.5 4
      vertex 7.81787 54.5 0.2
    endloop
  endfacet
  facet normal 0 1 0
    outer loop
      vertex 7.81787 54.5 0.2
      vertex 0 54.5 4
      vertex 35.25 54.5 4
    endloop
  endfacet
  facet normal 0 1 0
    outer loop
      vertex 7.81787 54.5 0.2
      vertex 35.25 54.5 4
      vertex 35.25 54.5 0
    endloop
  endfacet
  facet normal 0 1 -0
    outer loop
      vertex 7.81787 54.5 0.2
      vertex 35.25 54.5 0
      vertex 7.81787 54.5 0
    endloop
  endfacet
  facet normal 0.992709 0.120536 0
    outer loop
      vertex 7.81787 54.5 0
      vertex 7.76753 54.9145 0
      vertex 7.76753 54.9145 0.2
    endloop
  endfacet
  facet normal 0.992709 0.120536 -0
    outer loop
      vertex 7.81787 54.5 0.2
      vertex 7.81787 54.5 0
      vertex 7.76753 54.9145 0.2
    endloop
  endfacet
  facet normal 0.935016 0.354605 0
    outer loop
      vertex 7.76753 54.9145 0
      vertex 7.08365 56.7178 0
      vertex 7.08365 56.7178 0.2
    endloop
  endfacet
  facet normal 0.935016 0.354605 -0
    outer loop
      vertex 7.76753 54.9145 0.2
      vertex 7.76753 54.9145 0
      vertex 7.08365 56.7178 0.2
    endloop
  endfacet
  facet normal 0.822984 0.568065 0
    outer loop
      vertex 7.08365 56.7178 0
      vertex 5.98809 58.305 0
      vertex 5.98809 58.305 0.2
    endloop
  endfacet
  facet normal 0.822984 0.568065 -0
    outer loop
      vertex 7.08365 56.7178 0.2
      vertex 7.08365 56.7178 0
      vertex 5.98809 58.305 0.2
    endloop
  endfacet
  facet normal 0.663123 0.748511 0
    outer loop
      vertex 4.54452 59.5839 0
      vertex 4.54452 59.5839 0.2
      vertex 5.98809 58.305 0
    endloop
  endfacet
  facet normal 0.663123 0.748511 0
    outer loop
      vertex 5.98809 58.305 0
      vertex 4.54452 59.5839 0.2
      vertex 5.98809 58.305 0.2
    endloop
  endfacet
  facet normal 0.464723 0.885456 0
    outer loop
      vertex 2.83684 60.4801 0
      vertex 2.83684 60.4801 0.2
      vertex 4.54452 59.5839 0
    endloop
  endfacet
  facet normal 0.464723 0.885456 0
    outer loop
      vertex 4.54452 59.5839 0
      vertex 2.83684 60.4801 0.2
      vertex 4.54452 59.5839 0.2
    endloop
  endfacet
  facet normal 0.239316 0.970942 0
    outer loop
      vertex 0.964293 60.9417 0
      vertex 0.964293 60.9417 0.2
      vertex 2.83684 60.4801 0
    endloop
  endfacet
  facet normal 0.239316 0.970942 0
    outer loop
      vertex 2.83684 60.4801 0
      vertex 0.964293 60.9417 0.2
      vertex 2.83684 60.4801 0.2
    endloop
  endfacet
  facet normal 0 1 0
    outer loop
      vertex -0.964293 60.9417 0
      vertex -0.964293 60.9417 0.2
      vertex 0.964293 60.9417 0
    endloop
  endfacet
  facet normal 0 1 0
    outer loop
      vertex 0.964293 60.9417 0
      vertex -0.964293 60.9417 0.2
      vertex 0.964293 60.9417 0.2
    endloop
  endfacet
  facet normal -0.239316 0.970942 0
    outer loop
      vertex -2.83684 60.4801 0
      vertex -2.83684 60.4801 0.2
      vertex -0.964293 60.9417 0
    endloop
  endfacet
  facet normal -0.239316 0.970942 0
    outer loop
      vertex -0.964293 60.9417 0
      vertex -2.83684 60.4801 0.2
      vertex -0.964293 60.9417 0.2
    endloop
  endfacet
  facet normal -0.464723 0.885456 0
    outer loop
      vertex -4.54452 59.5839 0
      vertex -4.54452 59.5839 0.2
      vertex -2.83684 60.4801 0
    endloop
  endfacet
  facet normal -0.464723 0.885456 0
    outer loop
      vertex -2.83684 60.4801 0
      vertex -4.54452 59.5839 0.2
      vertex -2.83684 60.4801 0.2
    endloop
  endfacet
  facet normal -0.663123 0.748511 0
    outer loop
      vertex -5.98809 58.305 0
      vertex -5.98809 58.305 0.2
      vertex -4.54452 59.5839 0
    endloop
  endfacet
  facet normal -0.663123 0.748511 0
    outer loop
      vertex -4.54452 59.5839 0
      vertex -5.98809 58.305 0.2
      vertex -4.54452 59.5839 0.2
    endloop
  endfacet
  facet normal -0.822984 0.568065 0
    outer loop
      vertex -7.08365 56.7178 0
      vertex -7.08365 56.7178 0.2
      vertex -5.98809 58.305 0
    endloop
  endfacet
  facet normal -0.822984 0.568065 0
    outer loop
      vertex -5.98809 58.305 0
      vertex -7.08365 56.7178 0.2
      vertex -5.98809 58.305 0.2
    endloop
  endfacet
  facet normal -0.935016 0.354605 0
    outer loop
      vertex -7.76753 54.9145 0
      vertex -7.76753 54.9145 0.2
      vertex -7.08365 56.7178 0
    endloop
  endfacet
  facet normal -0.935016 0.354605 0
    outer loop
      vertex -7.08365 56.7178 0
      vertex -7.76753 54.9145 0.2
      vertex -7.08365 56.7178 0.2
    endloop
  endfacet
  facet normal -0.992709 0.120536 0
    outer loop
      vertex -8 53 0
      vertex -8 53 0.2
      vertex -7.76753 54.9145 0
    endloop
  endfacet
  facet normal -0.992709 0.120536 0
    outer loop
      vertex -7.76753 54.9145 0
      vertex -8 53 0.2
      vertex -7.76753 54.9145 0.2
    endloop
  endfacet
  facet normal -0.992709 -0.120536 -0
    outer loop
      vertex -8 53 0
      vertex -7.76753 51.0855 0
      vertex -8 53 0.2
    endloop
  endfacet
  facet normal -0.992709 -0.120536 0
    outer loop
      vertex -8 53 0.2
      vertex -7.76753 51.0855 0
      vertex -7.76753 51.0855 0.2
    endloop
  endfacet
  facet normal -0.935016 -0.354605 -0
    outer loop
      vertex -7.76753 51.0855 0
      vertex -7.08365 49.2822 0
      vertex -7.76753 51.0855 0.2
    endloop
  endfacet
  facet normal -0.935016 -0.354605 0
    outer loop
      vertex -7.76753 51.0855 0.2
      vertex -7.08365 49.2822 0
      vertex -7.08365 49.2822 0.2
    endloop
  endfacet
  facet normal -0.822984 -0.568065 -0
    outer loop
      vertex -7.08365 49.2822 0
      vertex -5.98809 47.695 0
      vertex -7.08365 49.2822 0.2
    endloop
  endfacet
  facet normal -0.822984 -0.568065 0
    outer loop
      vertex -7.08365 49.2822 0.2
      vertex -5.98809 47.695 0
      vertex -5.98809 47.695 0.2
    endloop
  endfacet
  facet normal -0.663123 -0.748511 0
    outer loop
      vertex -5.98809 47.695 0.2
      vertex -5.98809 47.695 0
      vertex -4.54452 46.4161 0
    endloop
  endfacet
  facet normal -0.663123 -0.748511 0
    outer loop
      vertex -4.54452 46.4161 0.2
      vertex -5.98809 47.695 0.2
      vertex -4.54452 46.4161 0
    endloop
  endfacet
  facet normal -0.464723 -0.885456 0
    outer loop
      vertex -4.54452 46.4161 0.2
      vertex -4.54452 46.4161 0
      vertex -2.83684 45.5199 0
    endloop
  endfacet
  facet normal -0.464723 -0.885456 0
    outer loop
      vertex -2.83684 45.5199 0.2
      vertex -4.54452 46.4161 0.2
      vertex -2.83684 45.5199 0
    endloop
  endfacet
  facet normal -0.239316 -0.970942 0
    outer loop
      vertex -2.83684 45.5199 0.2
      vertex -2.83684 45.5199 0
      vertex -0.964293 45.0583 0
    endloop
  endfacet
  facet normal -0.239316 -0.970942 0
    outer loop
      vertex -0.964293 45.0583 0.2
      vertex -2.83684 45.5199 0.2
      vertex -0.964293 45.0583 0
    endloop
  endfacet
  facet normal 0 -1 0
    outer loop
      vertex -0.964293 45.0583 0.2
      vertex -0.964293 45.0583 0
      vertex 0 45.0583 0
    endloop
  endfacet
  facet normal 0 -1 0
    outer loop
      vertex 0 45.0583 0.2
      vertex -0.964293 45.0583 0.2
      vertex 0 45.0583 0
    endloop
  endfacet
  facet normal -1 0 0
    outer loop
      vertex 0 16.5 0.5
      vertex 0 7.94167 0.2
      vertex 0 5.5 0.5
    endloop
  endfacet
  facet normal -1 0 0
    outer loop
      vertex 0 5.5 3.5
      vertex 0 3.75 4
      vertex 0 3.75 36
    endloop
  endfacet
  facet normal -1 0 0
    outer loop
      vertex 0 5.5 0.5
      vertex 0 3.75 4
      vertex 0 5.5 3.5
    endloop
  endfacet
  facet normal -1 0 0
    outer loop
      vertex 0 16.5 3.5
      vertex 0 49.25 36
      vertex 0 49.25 4
    endloop
  endfacet
  facet normal -1 -0 0
    outer loop
      vertex 0 16.5 3.5
      vertex 0 54.5 4
      vertex 0 16.5 0.5
    endloop
  endfacet
  facet normal -1 -0 0
    outer loop
      vertex 0 45.0583 0.2
      vertex 0 54.5 4
      vertex 0 54.5 0.2
    endloop
  endfacet
  facet normal -1 -0 0
    outer loop
      vertex 0 16.5 0.5
      vertex 0 54.5 4
      vertex 0 45.0583 0.2
    endloop
  endfacet
  facet normal -1 0 -0
    outer loop
      vertex 0 5.5 3.5
      vertex 0 3.75 36
      vertex 0 49.25 36
    endloop
  endfacet
  facet normal -1 0 0
    outer loop
      vertex 0 45.0583 0.2
      vertex 0 45.0583 0
      vertex 0 7.94167 0.2
    endloop
  endfacet
  facet normal -1 -0 0
    outer loop
      vertex 0 5.5 3.5
      vertex 0 49.25 36
      vertex 0 16.5 3.5
    endloop
  endfacet
  facet normal -1 0 0
    outer loop
      vertex 0 5.5 0.5
      vertex 0 -1.5 4
      vertex 0 3.75 4
    endloop
  endfacet
  facet normal -1 0 -0
    outer loop
      vertex 0 -1.5 0.2
      vertex 0 -1.5 4
      vertex 0 5.5 0.5
    endloop
  endfacet
  facet normal -1 -0 0
    outer loop
      vertex 0 -1.5 0.2
      vertex 0 5.5 0.5
      vertex 0 7.94167 0.2
    endloop
  endfacet
  facet normal -1 0 0
    outer loop
      vertex 0 16.5 3.5
      vertex 0 49.25 4
      vertex 0 54.5 4
    endloop
  endfacet
  facet normal -1 -0 0
    outer loop
      vertex 0 7.94167 0.2
      vertex 0 16.5 0.5
      vertex 0 45.0583 0.2
    endloop
  endfacet
  facet normal -1 0 0
    outer loop
      vertex 0 7.94167 0.2
      vertex 0 45.0583 0
      vertex 0 7.94167 0
    endloop
  endfacet
  facet normal 0 1 0
    outer loop
      vertex -0.964293 7.94167 0
      vertex -0.964293 7.94167 0.2
      vertex 0 7.94167 0
    endloop
  endfacet
  facet normal 0 1 0
    outer loop
      vertex 0 7.94167 0
      vertex -0.964293 7.94167 0.2
      vertex 0 7.94167 0.2
    endloop
  endfacet
  facet normal -0.239316 0.970942 0
    outer loop
      vertex -2.83684 7.48013 0
      vertex -2.83684 7.48013 0.2
      vertex -0.964293 7.94167 0
    endloop
  endfacet
  facet normal -0.239316 0.970942 0
    outer loop
      vertex -0.964293 7.94167 0
      vertex -2.83684 7.48013 0.2
      vertex -0.964293 7.94167 0.2
    endloop
  endfacet
  facet normal -0.464723 0.885456 0
    outer loop
      vertex -4.54452 6.58387 0
      vertex -4.54452 6.58387 0.2
      vertex -2.83684 7.48013 0
    endloop
  endfacet
  facet normal -0.464723 0.885456 0
    outer loop
      vertex -2.83684 7.48013 0
      vertex -4.54452 6.58387 0.2
      vertex -2.83684 7.48013 0.2
    endloop
  endfacet
  facet normal -0.663123 0.748511 0
    outer loop
      vertex -5.98809 5.30498 0
      vertex -5.98809 5.30498 0.2
      vertex -4.54452 6.58387 0
    endloop
  endfacet
  facet normal -0.663123 0.748511 0
    outer loop
      vertex -4.54452 6.58387 0
      vertex -5.98809 5.30498 0.2
      vertex -4.54452 6.58387 0.2
    endloop
  endfacet
  facet normal -0.822984 0.568065 0
    outer loop
      vertex -7.08365 3.71778 0
      vertex -7.08365 3.71778 0.2
      vertex -5.98809 5.30498 0
    endloop
  endfacet
  facet normal -0.822984 0.568065 0
    outer loop
      vertex -5.98809 5.30498 0
      vertex -7.08365 3.71778 0.2
      vertex -5.98809 5.30498 0.2
    endloop
  endfacet
  facet normal -0.935016 0.354605 0
    outer loop
      vertex -7.76753 1.91452 0
      vertex -7.76753 1.91452 0.2
      vertex -7.08365 3.71778 0
    endloop
  endfacet
  facet normal -0.935016 0.354605 0
    outer loop
      vertex -7.08365 3.71778 0
      vertex -7.76753 1.91452 0.2
      vertex -7.08365 3.71778 0.2
    endloop
  endfacet
  facet normal 0 0 1
    outer loop
      vertex -7.76753 1.91452 0.2
      vertex -8 0 0.2
      vertex -7.76753 -1.91452 0.2
    endloop
  endfacet
  facet normal 0 0 1
    outer loop
      vertex -5.98809 -5.30498 0.2
      vertex -7.76753 1.91452 0.2
      vertex -7.08365 -3.71778 0.2
    endloop
  endfacet
  facet normal 0 0 1
    outer loop
      vertex -7.08365 -3.71778 0.2
      vertex -7.76753 1.91452 0.2
      vertex -7.76753 -1.91452 0.2
    endloop
  endfacet
  facet normal 0 0 1
    outer loop
      vertex -4.54452 -6.58387 0.2
      vertex -7.76753 1.91452 0.2
      vertex -5.98809 -5.30498 0.2
    endloop
  endfacet
  facet normal 0 0 1
    outer loop
      vertex -2.83684 -7.48013 0.2
      vertex -7.76753 1.91452 0.2
      vertex -4.54452 -6.58387 0.2
    endloop
  endfacet
  facet normal 0 0 1
    outer loop
      vertex -0.964293 -7.94167 0.2
      vertex -7.76753 1.91452 0.2
      vertex -2.83684 -7.48013 0.2
    endloop
  endfacet
  facet normal -0 0 1
    outer loop
      vertex 0.964293 -7.94167 0.2
      vertex -7.76753 1.91452 0.2
      vertex -0.964293 -7.94167 0.2
    endloop
  endfacet
  facet normal -0 0 1
    outer loop
      vertex 2.83684 -7.48013 0.2
      vertex -7.76753 1.91452 0.2
      vertex 0.964293 -7.94167 0.2
    endloop
  endfacet
  facet normal -0 0 1
    outer loop
      vertex 4.54452 -6.58387 0.2
      vertex -7.76753 1.91452 0.2
      vertex 2.83684 -7.48013 0.2
    endloop
  endfacet
  facet normal -0 0 1
    outer loop
      vertex 5.98809 -5.30498 0.2
      vertex -7.76753 1.91452 0.2
      vertex 4.54452 -6.58387 0.2
    endloop
  endfacet
  facet normal -0 -0 1
    outer loop
      vertex 0 -1.5 0.2
      vertex -7.76753 1.91452 0.2
      vertex 5.98809 -5.30498 0.2
    endloop
  endfacet
  facet normal 0 0 1
    outer loop
      vertex 0 -1.5 0.2
      vertex 0 7.94167 0.2
      vertex -7.76753 1.91452 0.2
    endloop
  endfacet
  facet normal -0 0 1
    outer loop
      vertex 7.08365 -3.71778 0.2
      vertex 0 -1.5 0.2
      vertex 5.98809 -5.30498 0.2
    endloop
  endfacet
  facet normal 0 -0 1
    outer loop
      vertex -0.964293 7.94167 0.2
      vertex -7.76753 1.91452 0.2
      vertex 0 7.94167 0.2
    endloop
  endfacet
  facet normal 0 -0 1
    outer loop
      vertex -2.83684 7.48013 0.2
      vertex -7.76753 1.91452 0.2
      vertex -0.964293 7.94167 0.2
    endloop
  endfacet
  facet normal 0 -0 1
    outer loop
      vertex -4.54452 6.58387 0.2
      vertex -7.76753 1.91452 0.2
      vertex -2.83684 7.48013 0.2
    endloop
  endfacet
  facet normal 0 -0 1
    outer loop
      vertex -5.98809 5.30498 0.2
      vertex -7.76753 1.91452 0.2
      vertex -4.54452 6.58387 0.2
    endloop
  endfacet
  facet normal 0 -0 1
    outer loop
      vertex -7.08365 3.71778 0.2
      vertex -7.76753 1.91452 0.2
      vertex -5.98809 5.30498 0.2
    endloop
  endfacet
  facet normal 0 0 1
    outer loop
      vertex 7.81787 -1.5 0.2
      vertex 7.08365 -3.71778 0.2
      vertex 7.76753 -1.91452 0.2
    endloop
  endfacet
  facet normal 0 0 1
    outer loop
      vertex 7.81787 -1.5 0.2
      vertex 0 -1.5 0.2
      vertex 7.08365 -3.71778 0.2
    endloop
  endfacet
  facet normal 0 -0 1
    outer loop
      vertex 3.5 2 4
      vertex 0 -1.5 4
      vertex 95.5 -1.5 4
    endloop
  endfacet
  facet normal 0 0 1
    outer loop
      vertex 2 2 4
      vertex 2 3.75 4
      vertex 0 3.75 4
    endloop
  endfacet
  facet normal 0 0 1
    outer loop
      vertex 3.5 50.5 4
      vertex 32 47.5 4
      vertex 35.25 54.5 4
    endloop
  endfacet
  facet normal 0 0 1
    outer loop
      vertex 0 54.5 4
      vertex 2 50.5 4
      vertex 35.25 54.5 4
    endloop
  endfacet
  facet normal 0 -0 1
    outer loop
      vertex 0 54.5 4
      vertex 0 49.25 4
      vertex 2 50.5 4
    endloop
  endfacet
  facet normal 0 0 1
    outer loop
      vertex 2 50.5 4
      vertex 3.5 50.5 4
      vertex 35.25 54.5 4
    endloop
  endfacet
  facet normal 0 -0 1
    outer loop
      vertex 2 2 4
      vertex 0 -1.5 4
      vertex 3.5 2 4
    endloop
  endfacet
  facet normal -0 0 1
    outer loop
      vertex 30.5562 33.8213 4
      vertex 32 47.5 4
      vertex 29.3933 30.2424 4
    endloop
  endfacet
  facet normal 0 -0 1
    outer loop
      vertex 0 3.75 4
      vertex 0 -1.5 4
      vertex 2 2 4
    endloop
  endfacet
  facet normal -0 0 1
    outer loop
      vertex 32 36.5 4
      vertex 32 47.5 4
      vertex 30.5562 33.8213 4
    endloop
  endfacet
  facet normal -0 0 1
    outer loop
      vertex 2 49.25 4
      vertex 2 50.5 4
      vertex 0 49.25 4
    endloop
  endfacet
  facet normal 0 -0 1
    outer loop
      vertex 32 36.5 4
      vertex 30.5562 33.8213 4
      vertex 32.1028 36.5 4
    endloop
  endfacet
  facet normal 0 0 1
    outer loop
      vertex 35.25 54.5 4
      vertex 32 47.5 4
      vertex 35.25 50 4
    endloop
  endfacet
  facet normal 0 -0 1
    outer loop
      vertex 86 52.5 4
      vertex 86 49 4
      vertex 95.5 54.5 4
    endloop
  endfacet
  facet normal 0 0 1
    outer loop
      vertex 95.5 54.5 4
      vertex 63.4438 33.8213 4
      vertex 95.5 -1.5 4
    endloop
  endfacet
  facet normal 0 0 1
    outer loop
      vertex 63.4438 33.8213 4
      vertex 64.6067 30.2424 4
      vertex 95.5 -1.5 4
    endloop
  endfacet
  facet normal 0 0 1
    outer loop
      vertex 64.6067 30.2424 4
      vertex 65 26.5 4
      vertex 95.5 -1.5 4
    endloop
  endfacet
  facet normal 0 -0 1
    outer loop
      vertex 65 26.5 4
      vertex 64.6067 22.7576 4
      vertex 95.5 -1.5 4
    endloop
  endfacet
  facet normal 0 -0 1
    outer loop
      vertex 64.6067 22.7576 4
      vertex 63.4438 19.1787 4
      vertex 95.5 -1.5 4
    endloop
  endfacet
  facet normal 0 0 1
    outer loop
      vertex 32 47.5 4
      vertex 62 47.5 4
      vertex 58.75 50 4
    endloop
  endfacet
  facet normal -0 0 1
    outer loop
      vertex 32.1028 16.5 4
      vertex 30.5562 19.1787 4
      vertex 32 16.5 4
    endloop
  endfacet
  facet normal 0 0 1
    outer loop
      vertex 32 47.5 4
      vertex 58.75 50 4
      vertex 35.25 50 4
    endloop
  endfacet
  facet normal 0 0 1
    outer loop
      vertex 63.4438 19.1787 4
      vertex 61.8972 16.5 4
      vertex 62 16.5 4
    endloop
  endfacet
  facet normal 0 0 1
    outer loop
      vertex 78 1 4
      vertex 78 4.5 4
      vertex 62 5.5 4
    endloop
  endfacet
  facet normal 0 -0 1
    outer loop
      vertex 86 1 4
      vertex 78 1 4
      vertex 95.5 -1.5 4
    endloop
  endfacet
  facet normal -0 0 1
    outer loop
      vertex 78 49 4
      vertex 58.75 50 4
      vertex 62 47.5 4
    endloop
  endfacet
  facet normal 0 0 1
    outer loop
      vertex 63.4438 19.1787 4
      vertex 86 4.5 4
      vertex 95.5 -1.5 4
    endloop
  endfacet
  facet normal 0 -0 1
    outer loop
      vertex 63.4438 19.1787 4
      vertex 62 16.5 4
      vertex 86 4.5 4
    endloop
  endfacet
  facet normal 0 0 1
    outer loop
      vertex 86 49 4
      vertex 78 49 4
      vertex 62 36.5 4
    endloop
  endfacet
  facet normal 0 0 1
    outer loop
      vertex 62 36.5 4
      vertex 63.4438 33.8213 4
      vertex 86 49 4
    endloop
  endfacet
  facet normal 0 0 1
    outer loop
      vertex 58.75 54.5 4
      vertex 78 52.5 4
      vertex 95.5 54.5 4
    endloop
  endfacet
  facet normal 0 -0 1
    outer loop
      vertex 58.75 54.5 4
      vertex 58.75 50 4
      vertex 78 52.5 4
    endloop
  endfacet
  facet normal 0 0 1
    outer loop
      vertex 95.5 54.5 4
      vertex 86 49 4
      vertex 63.4438 33.8213 4
    endloop
  endfacet
  facet normal 0 -0 1
    outer loop
      vertex 86 4.5 4
      vertex 86 1 4
      vertex 95.5 -1.5 4
    endloop
  endfacet
  facet normal 0 -0 1
    outer loop
      vertex 62 47.5 4
      vertex 62 36.5 4
      vertex 78 49 4
    endloop
  endfacet
  facet normal 0 0 1
    outer loop
      vertex 61.8972 36.5 4
      vertex 63.4438 33.8213 4
      vertex 62 36.5 4
    endloop
  endfacet
  facet normal 0 0 1
    outer loop
      vertex 3.5 50.5 4
      vertex 29.3933 30.2424 4
      vertex 32 47.5 4
    endloop
  endfacet
  facet normal 0 0 1
    outer loop
      vertex 78 52.5 4
      vertex 86 52.5 4
      vertex 95.5 54.5 4
    endloop
  endfacet
  facet normal 0 0 1
    outer loop
      vertex 3.5 50.5 4
      vertex 29 26.5 4
      vertex 29.3933 30.2424 4
    endloop
  endfacet
  facet normal 0 0 1
    outer loop
      vertex 3.5 50.5 4
      vertex 29.3933 22.7576 4
      vertex 29 26.5 4
    endloop
  endfacet
  facet normal 0 -0 1
    outer loop
      vertex 62 16.5 4
      vertex 62 5.5 4
      vertex 78 4.5 4
    endloop
  endfacet
  facet normal 0 0 1
    outer loop
      vertex 78 49 4
      vertex 78 52.5 4
      vertex 58.75 50 4
    endloop
  endfacet
  facet normal 0 0 1
    outer loop
      vertex 3.5 50.5 4
      vertex 30.5562 19.1787 4
      vertex 29.3933 22.7576 4
    endloop
  endfacet
  facet normal 0 0 1
    outer loop
      vertex 78 4.5 4
      vertex 86 4.5 4
      vertex 62 16.5 4
    endloop
  endfacet
  facet normal 0 0 1
    outer loop
      vertex 3.5 50.5 4
      vertex 32 16.5 4
      vertex 30.5562 19.1787 4
    endloop
  endfacet
  facet normal 0 0 1
    outer loop
      vertex 3.5 50.5 4
      vertex 32 5.5 4
      vertex 32 16.5 4
    endloop
  endfacet
  facet normal 0 0 1
    outer loop
      vertex 32 5.5 4
      vertex 78 1 4
      vertex 62 5.5 4
    endloop
  endfacet
  facet normal 0 0 1
    outer loop
      vertex 32 5.5 4
      vertex 95.5 -1.5 4
      vertex 78 1 4
    endloop
  endfacet
  facet normal 0 -0 1
    outer loop
      vertex 32 5.5 4
      vertex 3.5 2 4
      vertex 95.5 -1.5 4
    endloop
  endfacet
  facet normal 0 -0 1
    outer loop
      vertex 3.5 50.5 4
      vertex 3.5 2 4
      vertex 32 5.5 4
    endloop
  endfacet
  facet normal 0 0 1
    outer loop
      vertex 95.5 -1.5 0.2
      vertex 86.1821 -1.5 0.2
      vertex 86.2325 -1.91452 0.2
    endloop
  endfacet
  facet normal 0 0 1
    outer loop
      vertex 88.0119 -5.30498 0.2
      vertex 95.5 -1.5 0.2
      vertex 86.9164 -3.71778 0.2
    endloop
  endfacet
  facet normal 0 0 1
    outer loop
      vertex 86.9164 -3.71778 0.2
      vertex 95.5 -1.5 0.2
      vertex 86.2325 -1.91452 0.2
    endloop
  endfacet
  facet normal 0 0 1
    outer loop
      vertex 89.4555 -6.58387 0.2
      vertex 95.5 -1.5 0.2
      vertex 88.0119 -5.30498 0.2
    endloop
  endfacet
  facet normal 0 0 1
    outer loop
      vertex 91.1632 -7.48013 0.2
      vertex 95.5 -1.5 0.2
      vertex 89.4555 -6.58387 0.2
    endloop
  endfacet
  facet normal 0 0 1
    outer loop
      vertex 93.0357 -7.94167 0.2
      vertex 95.5 -1.5 0.2
      vertex 91.1632 -7.48013 0.2
    endloop
  endfacet
  facet normal -0 0 1
    outer loop
      vertex 94.9643 -7.94167 0.2
      vertex 95.5 -1.5 0.2
      vertex 93.0357 -7.94167 0.2
    endloop
  endfacet
  facet normal -0 0 1
    outer loop
      vertex 96.8368 -7.48013 0.2
      vertex 95.5 -1.5 0.2
      vertex 94.9643 -7.94167 0.2
    endloop
  endfacet
  facet normal -0 0 1
    outer loop
      vertex 98.5445 -6.58387 0.2
      vertex 95.5 -1.5 0.2
      vertex 96.8368 -7.48013 0.2
    endloop
  endfacet
  facet normal -0 0 1
    outer loop
      vertex 99.9881 -5.30498 0.2
      vertex 95.5 -1.5 0.2
      vertex 98.5445 -6.58387 0.2
    endloop
  endfacet
  facet normal -0 0 1
    outer loop
      vertex 101.084 -3.71778 0.2
      vertex 95.5 -1.5 0.2
      vertex 99.9881 -5.30498 0.2
    endloop
  endfacet
  facet normal -0 0 1
    outer loop
      vertex 101.768 -1.91452 0.2
      vertex 95.5 -1.5 0.2
      vertex 101.084 -3.71778 0.2
    endloop
  endfacet
  facet normal 0 0 1
    outer loop
      vertex 102 0 0.2
      vertex 95.5 -1.5 0.2
      vertex 101.768 -1.91452 0.2
    endloop
  endfacet
  facet normal 0 0 1
    outer loop
      vertex 95.5 7.80963 0.2
      vertex 98.5445 6.58387 0.2
      vertex 96.8368 7.48013 0.2
    endloop
  endfacet
  facet normal 0 0 1
    outer loop
      vertex 95.5 7.80963 0.2
      vertex 99.9881 5.30498 0.2
      vertex 98.5445 6.58387 0.2
    endloop
  endfacet
  facet normal 0 0 1
    outer loop
      vertex 95.5 7.80963 0.2
      vertex 101.084 3.71778 0.2
      vertex 99.9881 5.30498 0.2
    endloop
  endfacet
  facet normal 0 0 1
    outer loop
      vertex 95.5 7.80963 0.2
      vertex 101.768 1.91452 0.2
      vertex 101.084 3.71778 0.2
    endloop
  endfacet
  facet normal 0 0 1
    outer loop
      vertex 95.5 7.80963 0.2
      vertex 102 0 0.2
      vertex 101.768 1.91452 0.2
    endloop
  endfacet
  facet normal 0 -0 1
    outer loop
      vertex 95.5 7.80963 0.2
      vertex 95.5 -1.5 0.2
      vertex 102 0 0.2
    endloop
  endfacet
  facet normal 0 -0 1
    outer loop
      vertex 86.2325 54.9145 0.2
      vertex 86.1821 54.5 0.2
      vertex 95.5 54.5 0.2
    endloop
  endfacet
  facet normal 0 0 1
    outer loop
      vertex 101.768 54.9145 0.2
      vertex 86.2325 54.9145 0.2
      vertex 95.5 54.5 0.2
    endloop
  endfacet
  facet normal 0 0 1
    outer loop
      vertex 95.5 45.1904 0.2
      vertex 96.8368 45.5199 0.2
      vertex 95.5 54.5 0.2
    endloop
  endfacet
  facet normal 0 0 1
    outer loop
      vertex 96.8368 45.5199 0.2
      vertex 98.5445 46.4161 0.2
      vertex 95.5 54.5 0.2
    endloop
  endfacet
  facet normal 0 0 1
    outer loop
      vertex 98.5445 46.4161 0.2
      vertex 99.9881 47.695 0.2
      vertex 95.5 54.5 0.2
    endloop
  endfacet
  facet normal 0 0 1
    outer loop
      vertex 99.9881 47.695 0.2
      vertex 101.084 49.2822 0.2
      vertex 95.5 54.5 0.2
    endloop
  endfacet
  facet normal 0 0 1
    outer loop
      vertex 101.084 49.2822 0.2
      vertex 101.768 51.0855 0.2
      vertex 95.5 54.5 0.2
    endloop
  endfacet
  facet normal 0 0 1
    outer loop
      vertex 101.768 51.0855 0.2
      vertex 102 53 0.2
      vertex 95.5 54.5 0.2
    endloop
  endfacet
  facet normal 0 0 1
    outer loop
      vertex 102 53 0.2
      vertex 101.768 54.9145 0.2
      vertex 95.5 54.5 0.2
    endloop
  endfacet
  facet normal -0 0 1
    outer loop
      vertex 101.768 54.9145 0.2
      vertex 101.084 56.7178 0.2
      vertex 86.2325 54.9145 0.2
    endloop
  endfacet
  facet normal -0 0 1
    outer loop
      vertex 101.084 56.7178 0.2
      vertex 99.9881 58.305 0.2
      vertex 86.2325 54.9145 0.2
    endloop
  endfacet
  facet normal -0 0 1
    outer loop
      vertex 99.9881 58.305 0.2
      vertex 98.5445 59.5839 0.2
      vertex 86.2325 54.9145 0.2
    endloop
  endfacet
  facet normal -0 0 1
    outer loop
      vertex 98.5445 59.5839 0.2
      vertex 96.8368 60.4801 0.2
      vertex 86.2325 54.9145 0.2
    endloop
  endfacet
  facet normal -0 0 1
    outer loop
      vertex 96.8368 60.4801 0.2
      vertex 94.9643 60.9417 0.2
      vertex 86.2325 54.9145 0.2
    endloop
  endfacet
  facet normal 0 0 1
    outer loop
      vertex 94.9643 60.9417 0.2
      vertex 93.0357 60.9417 0.2
      vertex 86.2325 54.9145 0.2
    endloop
  endfacet
  facet normal 0 0 1
    outer loop
      vertex 93.0357 60.9417 0.2
      vertex 91.1632 60.4801 0.2
      vertex 86.2325 54.9145 0.2
    endloop
  endfacet
  facet normal 0 0 1
    outer loop
      vertex 91.1632 60.4801 0.2
      vertex 89.4555 59.5839 0.2
      vertex 86.2325 54.9145 0.2
    endloop
  endfacet
  facet normal 0 0 1
    outer loop
      vertex 89.4555 59.5839 0.2
      vertex 88.0119 58.305 0.2
      vertex 86.2325 54.9145 0.2
    endloop
  endfacet
  facet normal 0 0 1
    outer loop
      vertex 88.0119 58.305 0.2
      vertex 86.9164 56.7178 0.2
      vertex 86.2325 54.9145 0.2
    endloop
  endfacet
  facet normal -0 0 1
    outer loop
      vertex 63.4438 19.1787 0.5
      vertex 64.6067 22.7576 0.5
      vertex 61.8972 16.5 0.5
    endloop
  endfacet
  facet normal 0 0 1
    outer loop
      vertex 92.5 5.5 0.5
      vertex 92.5 16.5 0.5
      vertex 61.8972 16.5 0.5
    endloop
  endfacet
  facet normal 0 0 1
    outer loop
      vertex 29 26.5 0.5
      vertex 29.3933 22.7576 0.5
      vertex 92.5 5.5 0.5
    endloop
  endfacet
  facet normal -0 0 1
    outer loop
      vertex 64.6067 22.7576 0.5
      vertex 65 26.5 0.5
      vertex 61.8972 16.5 0.5
    endloop
  endfacet
  facet normal -0 0 1
    outer loop
      vertex 65 26.5 0.5
      vertex 64.6067 30.2424 0.5
      vertex 61.8972 16.5 0.5
    endloop
  endfacet
  facet normal -0 0 1
    outer loop
      vertex 64.6067 30.2424 0.5
      vertex 63.4438 33.8213 0.5
      vertex 61.8972 16.5 0.5
    endloop
  endfacet
  facet normal -0 0 1
    outer loop
      vertex 63.4438 33.8213 0.5
      vertex 61.8972 36.5 0.5
      vertex 61.8972 16.5 0.5
    endloop
  endfacet
  facet normal -0 0 1
    outer loop
      vertex 95.5 36.5 0.5
      vertex 95.5 47.5 0.5
      vertex 61.8972 36.5 0.5
    endloop
  endfacet
  facet normal 0 0 1
    outer loop
      vertex 95.5 47.5 0.5
      vertex 5 47.5 0.5
      vertex 61.8972 36.5 0.5
    endloop
  endfacet
  facet normal 0 0 1
    outer loop
      vertex 43.1162 25.5427 0.5
      vertex 43.1162 27.4573 0.5
      vertex 30.5562 33.8213 0.5
    endloop
  endfacet
  facet normal -0 0 1
    outer loop
      vertex 61.8972 36.5 0.5
      vertex 5 47.5 0.5
      vertex 32.1028 36.5 0.5
    endloop
  endfacet
  facet normal 0 -0 1
    outer loop
      vertex 49.2723 23.2081 0.5
      vertex 47.4821 22.5292 0.5
      vertex 61.8972 16.5 0.5
    endloop
  endfacet
  facet normal 0 -0 1
    outer loop
      vertex 29.3933 30.2424 0.5
      vertex 29 26.5 0.5
      vertex 45.5816 22.7599 0.5
    endloop
  endfacet
  facet normal 0 -0 1
    outer loop
      vertex 32.1028 16.5 0.5
      vertex 0 16.5 0.5
      vertex 92.5 5.5 0.5
    endloop
  endfacet
  facet normal 0 0 1
    outer loop
      vertex 29.3933 22.7576 0.5
      vertex 30.5562 19.1787 0.5
      vertex 92.5 5.5 0.5
    endloop
  endfacet
  facet normal 0 0 1
    outer loop
      vertex 30.5562 19.1787 0.5
      vertex 32.1028 16.5 0.5
      vertex 92.5 5.5 0.5
    endloop
  endfacet
  facet normal 0 -0 1
    outer loop
      vertex 0 16.5 0.5
      vertex 0 5.5 0.5
      vertex 92.5 5.5 0.5
    endloop
  endfacet
  facet normal 0 0 1
    outer loop
      vertex 45.5816 30.2401 0.5
      vertex 47.4821 30.4708 0.5
      vertex 61.8972 36.5 0.5
    endloop
  endfacet
  facet normal 0 -0 1
    outer loop
      vertex 32.1028 36.5 0.5
      vertex 30.5562 33.8213 0.5
      vertex 43.1162 27.4573 0.5
    endloop
  endfacet
  facet normal 0 0 1
    outer loop
      vertex 44.006 23.8475 0.5
      vertex 43.1162 25.5427 0.5
      vertex 29.3933 30.2424 0.5
    endloop
  endfacet
  facet normal -0 0 1
    outer loop
      vertex 45.5816 30.2401 0.5
      vertex 32.1028 36.5 0.5
      vertex 44.006 29.1525 0.5
    endloop
  endfacet
  facet normal 0 0 1
    outer loop
      vertex 50.5418 28.3589 0.5
      vertex 51 26.5 0.5
      vertex 61.8972 16.5 0.5
    endloop
  endfacet
  facet normal 0 0 1
    outer loop
      vertex 61.8972 36.5 0.5
      vertex 32.1028 36.5 0.5
      vertex 45.5816 30.2401 0.5
    endloop
  endfacet
  facet normal 0 0 1
    outer loop
      vertex 61.8972 36.5 0.5
      vertex 49.2723 29.7919 0.5
      vertex 61.8972 16.5 0.5
    endloop
  endfacet
  facet normal 0 0 1
    outer loop
      vertex 61.8972 36.5 0.5
      vertex 47.4821 30.4708 0.5
      vertex 49.2723 29.7919 0.5
    endloop
  endfacet
  facet normal 0 0 1
    outer loop
      vertex 49.2723 29.7919 0.5
      vertex 50.5418 28.3589 0.5
      vertex 61.8972 16.5 0.5
    endloop
  endfacet
  facet normal 0 -0 1
    outer loop
      vertex 51 26.5 0.5
      vertex 50.5418 24.6411 0.5
      vertex 61.8972 16.5 0.5
    endloop
  endfacet
  facet normal 0 0 1
    outer loop
      vertex 29.3933 30.2424 0.5
      vertex 45.5816 22.7599 0.5
      vertex 44.006 23.8475 0.5
    endloop
  endfacet
  facet normal -0 -0 1
    outer loop
      vertex 47.4821 22.5292 0.5
      vertex 45.5816 22.7599 0.5
      vertex 61.8972 16.5 0.5
    endloop
  endfacet
  facet normal -0 -0 1
    outer loop
      vertex 61.8972 16.5 0.5
      vertex 29 26.5 0.5
      vertex 92.5 5.5 0.5
    endloop
  endfacet
  facet normal -0 -0 1
    outer loop
      vertex 45.5816 22.7599 0.5
      vertex 29 26.5 0.5
      vertex 61.8972 16.5 0.5
    endloop
  endfacet
  facet normal 0 0 1
    outer loop
      vertex 43.1162 27.4573 0.5
      vertex 44.006 29.1525 0.5
      vertex 32.1028 36.5 0.5
    endloop
  endfacet
  facet normal 0 -0 1
    outer loop
      vertex 50.5418 24.6411 0.5
      vertex 49.2723 23.2081 0.5
      vertex 61.8972 16.5 0.5
    endloop
  endfacet
  facet normal 0 -0 1
    outer loop
      vertex 30.5562 33.8213 0.5
      vertex 29.3933 30.2424 0.5
      vertex 43.1162 25.5427 0.5
    endloop
  endfacet
  facet normal 0 0 1
    outer loop
      vertex 5 36.5 0.5
      vertex 32.1028 36.5 0.5
      vertex 5 47.5 0.5
    endloop
  endfacet
  facet normal 0 1 0
    outer loop
      vertex 62 36.5 4
      vertex 62 36.5 3.5
      vertex 61.8972 36.5 4
    endloop
  endfacet
  facet normal 0 1 0
    outer loop
      vertex 95.5 36.5 0.5
      vertex 62 36.5 3.5
      vertex 95.5 36.5 3.5
    endloop
  endfacet
  facet normal 0 1 0
    outer loop
      vertex 61.8972 36.5 0.5
      vertex 62 36.5 3.5
      vertex 95.5 36.5 0.5
    endloop
  endfacet
  facet normal 0 1 -0
    outer loop
      vertex 61.8972 36.5 4
      vertex 62 36.5 3.5
      vertex 61.8972 36.5 0.5
    endloop
  endfacet
  facet normal 0 -1 0
    outer loop
      vertex 32 47.5 3.5
      vertex 5 47.5 3.5
      vertex 95.5 47.5 0.5
    endloop
  endfacet
  facet normal 0 -1 0
    outer loop
      vertex 95.5 47.5 0.5
      vertex 95.5 47.5 3.5
      vertex 62 47.5 3.5
    endloop
  endfacet
  facet normal 0 -1 0
    outer loop
      vertex 32 47.5 4
      vertex 95.5 47.5 0.5
      vertex 62 47.5 3.5
    endloop
  endfacet
  facet normal 0 -1 0
    outer loop
      vertex 62 47.5 4
      vertex 32 47.5 4
      vertex 62 47.5 3.5
    endloop
  endfacet
  facet normal 0 -1 0
    outer loop
      vertex 32 47.5 4
      vertex 32 47.5 3.5
      vertex 95.5 47.5 0.5
    endloop
  endfacet
  facet normal 0 -1 0
    outer loop
      vertex 5 47.5 3.5
      vertex 5 47.5 0.5
      vertex 95.5 47.5 0.5
    endloop
  endfacet
  facet normal 0 0 -1
    outer loop
      vertex 95.5 47.5 3.5
      vertex 95.5 36.5 3.5
      vertex 62 47.5 3.5
    endloop
  endfacet
  facet normal 0 0 -1
    outer loop
      vertex 62 47.5 3.5
      vertex 95.5 36.5 3.5
      vertex 62 36.5 3.5
    endloop
  endfacet
  facet normal 0 0 1
    outer loop
      vertex -7.76753 54.9145 0.2
      vertex -8 53 0.2
      vertex -7.76753 51.0855 0.2
    endloop
  endfacet
  facet normal 0 0 1
    outer loop
      vertex -5.98809 47.695 0.2
      vertex -7.76753 54.9145 0.2
      vertex -7.08365 49.2822 0.2
    endloop
  endfacet
  facet normal 0 0 1
    outer loop
      vertex -7.08365 49.2822 0.2
      vertex -7.76753 54.9145 0.2
      vertex -7.76753 51.0855 0.2
    endloop
  endfacet
  facet normal 0 0 1
    outer loop
      vertex -4.54452 46.4161 0.2
      vertex -7.76753 54.9145 0.2
      vertex -5.98809 47.695 0.2
    endloop
  endfacet
  facet normal 0 0 1
    outer loop
      vertex -2.83684 45.5199 0.2
      vertex -7.76753 54.9145 0.2
      vertex -4.54452 46.4161 0.2
    endloop
  endfacet
  facet normal 0 0 1
    outer loop
      vertex -0.964293 45.0583 0.2
      vertex -7.76753 54.9145 0.2
      vertex -2.83684 45.5199 0.2
    endloop
  endfacet
  facet normal -0 0 1
    outer loop
      vertex 0 45.0583 0.2
      vertex -7.76753 54.9145 0.2
      vertex -0.964293 45.0583 0.2
    endloop
  endfacet
  facet normal -0 0 1
    outer loop
      vertex 0 54.5 0.2
      vertex -7.76753 54.9145 0.2
      vertex 0 45.0583 0.2
    endloop
  endfacet
  facet normal -0 0 1
    outer loop
      vertex 7.81787 54.5 0.2
      vertex -7.76753 54.9145 0.2
      vertex 0 54.5 0.2
    endloop
  endfacet
  facet normal 0 -0 1
    outer loop
      vertex 7.76753 54.9145 0.2
      vertex -7.76753 54.9145 0.2
      vertex 7.81787 54.5 0.2
    endloop
  endfacet
  facet normal 0 -0 1
    outer loop
      vertex 7.08365 56.7178 0.2
      vertex -7.76753 54.9145 0.2
      vertex 7.76753 54.9145 0.2
    endloop
  endfacet
  facet normal 0 -0 1
    outer loop
      vertex 5.98809 58.305 0.2
      vertex -7.76753 54.9145 0.2
      vertex 7.08365 56.7178 0.2
    endloop
  endfacet
  facet normal 0 -0 1
    outer loop
      vertex 4.54452 59.5839 0.2
      vertex -7.76753 54.9145 0.2
      vertex 5.98809 58.305 0.2
    endloop
  endfacet
  facet normal 0 -0 1
    outer loop
      vertex 2.83684 60.4801 0.2
      vertex -7.76753 54.9145 0.2
      vertex 4.54452 59.5839 0.2
    endloop
  endfacet
  facet normal 0 -0 1
    outer loop
      vertex 0.964293 60.9417 0.2
      vertex -7.76753 54.9145 0.2
      vertex 2.83684 60.4801 0.2
    endloop
  endfacet
  facet normal 0 -0 1
    outer loop
      vertex -0.964293 60.9417 0.2
      vertex -7.76753 54.9145 0.2
      vertex 0.964293 60.9417 0.2
    endloop
  endfacet
  facet normal 0 -0 1
    outer loop
      vertex -2.83684 60.4801 0.2
      vertex -7.76753 54.9145 0.2
      vertex -0.964293 60.9417 0.2
    endloop
  endfacet
  facet normal 0 -0 1
    outer loop
      vertex -4.54452 59.5839 0.2
      vertex -7.76753 54.9145 0.2
      vertex -2.83684 60.4801 0.2
    endloop
  endfacet
  facet normal 0 -0 1
    outer loop
      vertex -5.98809 58.305 0.2
      vertex -7.76753 54.9145 0.2
      vertex -4.54452 59.5839 0.2
    endloop
  endfacet
  facet normal 0 -0 1
    outer loop
      vertex -7.08365 56.7178 0.2
      vertex -7.76753 54.9145 0.2
      vertex -5.98809 58.305 0.2
    endloop
  endfacet
  facet normal 0 1 0
    outer loop
      vertex 0 49.25 4
      vertex 0 49.25 36
      vertex 2 49.25 4
    endloop
  endfacet
  facet normal 0 1 0
    outer loop
      vertex 2 49.25 4
      vertex 0 49.25 36
      vertex 2 49.25 36
    endloop
  endfacet
  facet normal 0 -0 1
    outer loop
      vertex 0 49.25 36
      vertex 0 3.75 36
      vertex 2 3.75 36
    endloop
  endfacet
  facet normal 0 0 1
    outer loop
      vertex 3.5 2 36
      vertex 0 49.25 36
      vertex 2 3.75 36
    endloop
  endfacet
  facet normal 0 0 1
    outer loop
      vertex 2 2 36
      vertex 3.5 2 36
      vertex 2 3.75 36
    endloop
  endfacet
  facet normal 0 0 1
    outer loop
      vertex 3.5 2 36
      vertex 2 49.25 36
      vertex 0 49.25 36
    endloop
  endfacet
  facet normal 0 0 1
    outer loop
      vertex 3.5 2 36
      vertex 3.5 50.5 36
      vertex 2 49.25 36
    endloop
  endfacet
  facet normal 0 -0 1
    outer loop
      vertex 2 50.5 36
      vertex 2 49.25 36
      vertex 3.5 50.5 36
    endloop
  endfacet
  facet normal 0 -1 0
    outer loop
      vertex 0 3.75 36
      vertex 0 3.75 4
      vertex 2 3.75 4
    endloop
  endfacet
  facet normal 0 -1 0
    outer loop
      vertex 2 3.75 36
      vertex 0 3.75 36
      vertex 2 3.75 4
    endloop
  endfacet
  facet normal 0 1 0
    outer loop
      vertex 32 5.5 3.5
      vertex 32 5.5 4
      vertex 62 5.5 4
    endloop
  endfacet
  facet normal 0 1 0
    outer loop
      vertex 32 5.5 3.5
      vertex 62 5.5 4
      vertex 62 5.5 3.5
    endloop
  endfacet
  facet normal 0 1 -0
    outer loop
      vertex 32 5.5 3.5
      vertex 92.5 5.5 0.5
      vertex 0 5.5 3.5
    endloop
  endfacet
  facet normal 0 1 0
    outer loop
      vertex 62 5.5 3.5
      vertex 92.5 5.5 3.5
      vertex 92.5 5.5 0.5
    endloop
  endfacet
  facet normal 0 1 -0
    outer loop
      vertex 62 5.5 3.5
      vertex 92.5 5.5 0.5
      vertex 32 5.5 3.5
    endloop
  endfacet
  facet normal -0 1 0
    outer loop
      vertex 92.5 5.5 0.5
      vertex 0 5.5 0.5
      vertex 0 5.5 3.5
    endloop
  endfacet
  facet normal 0 0 -1
    outer loop
      vertex 32 16.5 3.5
      vertex 32 5.5 3.5
      vertex 0 16.5 3.5
    endloop
  endfacet
  facet normal 0 0 -1
    outer loop
      vertex 0 16.5 3.5
      vertex 32 5.5 3.5
      vertex 0 5.5 3.5
    endloop
  endfacet
  facet normal 0 -1 0
    outer loop
      vertex 32.1028 16.5 0.5
      vertex 32.1028 16.5 4
      vertex 32 16.5 4
    endloop
  endfacet
  facet normal 0 -1 0
    outer loop
      vertex 0 16.5 3.5
      vertex 32.1028 16.5 0.5
      vertex 32 16.5 3.5
    endloop
  endfacet
  facet normal -0 -1 -0
    outer loop
      vertex 32 16.5 3.5
      vertex 32.1028 16.5 0.5
      vertex 32 16.5 4
    endloop
  endfacet
  facet normal -0 -1 -0
    outer loop
      vertex 0 16.5 0.5
      vertex 32.1028 16.5 0.5
      vertex 0 16.5 3.5
    endloop
  endfacet
  facet normal -1 -0 -0
    outer loop
      vertex 2 2 4
      vertex 2 2 36
      vertex 2 3.75 4
    endloop
  endfacet
  facet normal -1 0 0
    outer loop
      vertex 2 3.75 4
      vertex 2 2 36
      vertex 2 3.75 36
    endloop
  endfacet
  facet normal 0 -1 0
    outer loop
      vertex 2 2 36
      vertex 2 2 4
      vertex 3.5 2 4
    endloop
  endfacet
  facet normal 0 -1 0
    outer loop
      vertex 3.5 2 36
      vertex 2 2 36
      vertex 3.5 2 4
    endloop
  endfacet
  facet normal 1 0 -0
    outer loop
      vertex 3.5 2 36
      vertex 3.5 2 4
      vertex 3.5 50.5 4
    endloop
  endfacet
  facet normal 1 0 0
    outer loop
      vertex 3.5 50.5 36
      vertex 3.5 2 36
      vertex 3.5 50.5 4
    endloop
  endfacet
  facet normal 0 1 0
    outer loop
      vertex 2 50.5 4
      vertex 2 50.5 36
      vertex 3.5 50.5 4
    endloop
  endfacet
  facet normal 0 1 0
    outer loop
      vertex 3.5 50.5 4
      vertex 2 50.5 36
      vertex 3.5 50.5 36
    endloop
  endfacet
  facet normal -1 -0 -0
    outer loop
      vertex 2 49.25 4
      vertex 2 49.25 36
      vertex 2 50.5 4
    endloop
  endfacet
  facet normal -1 0 0
    outer loop
      vertex 2 50.5 4
      vertex 2 49.25 36
      vertex 2 50.5 36
    endloop
  endfacet
  facet normal 0.994522 0.104528 0
    outer loop
      vertex 29 26.5 4
      vertex 29.3933 22.7576 4
      vertex 29.3933 22.7576 0.5
    endloop
  endfacet
  facet normal 0.994522 0.104528 0
    outer loop
      vertex 29 26.5 0.5
      vertex 29 26.5 4
      vertex 29.3933 22.7576 0.5
    endloop
  endfacet
  facet normal 0.951057 0.309017 0
    outer loop
      vertex 29.3933 22.7576 4
      vertex 30.5562 19.1787 4
      vertex 30.5562 19.1787 0.5
    endloop
  endfacet
  facet normal 0.951057 0.309017 0
    outer loop
      vertex 29.3933 22.7576 0.5
      vertex 29.3933 22.7576 4
      vertex 30.5562 19.1787 0.5
    endloop
  endfacet
  facet normal 0.866025 0.5 0
    outer loop
      vertex 30.5562 19.1787 4
      vertex 32.1028 16.5 4
      vertex 32.1028 16.5 0.5
    endloop
  endfacet
  facet normal 0.866025 0.5 0
    outer loop
      vertex 30.5562 19.1787 0.5
      vertex 30.5562 19.1787 4
      vertex 32.1028 16.5 0.5
    endloop
  endfacet
  facet normal 1 0 0
    outer loop
      vertex 32 16.5 3.5
      vertex 32 16.5 4
      vertex 32 5.5 4
    endloop
  endfacet
  facet normal 1 0 0
    outer loop
      vertex 32 5.5 3.5
      vertex 32 16.5 3.5
      vertex 32 5.5 4
    endloop
  endfacet
  facet normal -1 0 0
    outer loop
      vertex 62 16.5 4
      vertex 62 16.5 3.5
      vertex 62 5.5 4
    endloop
  endfacet
  facet normal -1 0 0
    outer loop
      vertex 62 5.5 4
      vertex 62 16.5 3.5
      vertex 62 5.5 3.5
    endloop
  endfacet
  facet normal 0 -1 0
    outer loop
      vertex 92.5 16.5 0.5
      vertex 92.5 16.5 3.5
      vertex 62 16.5 3.5
    endloop
  endfacet
  facet normal -0 -1 0
    outer loop
      vertex 61.8972 16.5 0.5
      vertex 92.5 16.5 0.5
      vertex 62 16.5 3.5
    endloop
  endfacet
  facet normal 0 -1 0
    outer loop
      vertex 62 16.5 4
      vertex 61.8972 16.5 4
      vertex 62 16.5 3.5
    endloop
  endfacet
  facet normal 0 -1 0
    outer loop
      vertex 61.8972 16.5 4
      vertex 61.8972 16.5 0.5
      vertex 62 16.5 3.5
    endloop
  endfacet
  facet normal -0.866025 0.5 0
    outer loop
      vertex 63.4438 19.1787 4
      vertex 63.4438 19.1787 0.5
      vertex 61.8972 16.5 4
    endloop
  endfacet
  facet normal -0.866025 0.5 0
    outer loop
      vertex 61.8972 16.5 4
      vertex 63.4438 19.1787 0.5
      vertex 61.8972 16.5 0.5
    endloop
  endfacet
  facet normal -0.951057 0.309017 0
    outer loop
      vertex 64.6067 22.7576 4
      vertex 64.6067 22.7576 0.5
      vertex 63.4438 19.1787 4
    endloop
  endfacet
  facet normal -0.951057 0.309017 0
    outer loop
      vertex 63.4438 19.1787 4
      vertex 64.6067 22.7576 0.5
      vertex 63.4438 19.1787 0.5
    endloop
  endfacet
  facet normal -0.994522 0.104528 0
    outer loop
      vertex 65 26.5 4
      vertex 65 26.5 0.5
      vertex 64.6067 22.7576 4
    endloop
  endfacet
  facet normal -0.994522 0.104528 0
    outer loop
      vertex 64.6067 22.7576 4
      vertex 65 26.5 0.5
      vertex 64.6067 22.7576 0.5
    endloop
  endfacet
  facet normal -0.994522 -0.104528 0
    outer loop
      vertex 65 26.5 4
      vertex 64.6067 30.2424 4
      vertex 65 26.5 0.5
    endloop
  endfacet
  facet normal -0.994522 -0.104528 0
    outer loop
      vertex 65 26.5 0.5
      vertex 64.6067 30.2424 4
      vertex 64.6067 30.2424 0.5
    endloop
  endfacet
  facet normal -0.951057 -0.309017 0
    outer loop
      vertex 64.6067 30.2424 4
      vertex 63.4438 33.8213 4
      vertex 64.6067 30.2424 0.5
    endloop
  endfacet
  facet normal -0.951057 -0.309017 0
    outer loop
      vertex 64.6067 30.2424 0.5
      vertex 63.4438 33.8213 4
      vertex 63.4438 33.8213 0.5
    endloop
  endfacet
  facet normal -0.866025 -0.5 0
    outer loop
      vertex 63.4438 33.8213 4
      vertex 61.8972 36.5 4
      vertex 63.4438 33.8213 0.5
    endloop
  endfacet
  facet normal -0.866025 -0.5 0
    outer loop
      vertex 63.4438 33.8213 0.5
      vertex 61.8972 36.5 4
      vertex 61.8972 36.5 0.5
    endloop
  endfacet
  facet normal -1 0 0
    outer loop
      vertex 62 47.5 4
      vertex 62 47.5 3.5
      vertex 62 36.5 4
    endloop
  endfacet
  facet normal -1 0 0
    outer loop
      vertex 62 36.5 4
      vertex 62 47.5 3.5
      vertex 62 36.5 3.5
    endloop
  endfacet
  facet normal 1 0 0
    outer loop
      vertex 32 47.5 3.5
      vertex 32 47.5 4
      vertex 32 36.5 4
    endloop
  endfacet
  facet normal 1 0 0
    outer loop
      vertex 32 36.5 3.5
      vertex 32 47.5 3.5
      vertex 32 36.5 4
    endloop
  endfacet
  facet normal 0 1 0
    outer loop
      vertex 32 36.5 3.5
      vertex 32 36.5 4
      vertex 32.1028 36.5 4
    endloop
  endfacet
  facet normal 0 1 0
    outer loop
      vertex 32 36.5 3.5
      vertex 32.1028 36.5 4
      vertex 32.1028 36.5 0.5
    endloop
  endfacet
  facet normal 0 1 -0
    outer loop
      vertex 32 36.5 3.5
      vertex 32.1028 36.5 0.5
      vertex 5 36.5 3.5
    endloop
  endfacet
  facet normal -0 1 0
    outer loop
      vertex 32.1028 36.5 0.5
      vertex 5 36.5 0.5
      vertex 5 36.5 3.5
    endloop
  endfacet
  facet normal 0.866025 -0.5 0
    outer loop
      vertex 32.1028 36.5 0.5
      vertex 32.1028 36.5 4
      vertex 30.5562 33.8213 4
    endloop
  endfacet
  facet normal 0.866025 -0.5 0
    outer loop
      vertex 30.5562 33.8213 0.5
      vertex 32.1028 36.5 0.5
      vertex 30.5562 33.8213 4
    endloop
  endfacet
  facet normal 0.951057 -0.309017 0
    outer loop
      vertex 30.5562 33.8213 0.5
      vertex 30.5562 33.8213 4
      vertex 29.3933 30.2424 4
    endloop
  endfacet
  facet normal 0.951057 -0.309017 0
    outer loop
      vertex 29.3933 30.2424 0.5
      vertex 30.5562 33.8213 0.5
      vertex 29.3933 30.2424 4
    endloop
  endfacet
  facet normal 0.994522 -0.104528 0
    outer loop
      vertex 29.3933 30.2424 0.5
      vertex 29.3933 30.2424 4
      vertex 29 26.5 4
    endloop
  endfacet
  facet normal 0.994522 -0.104528 0
    outer loop
      vertex 29 26.5 0.5
      vertex 29.3933 30.2424 0.5
      vertex 29 26.5 4
    endloop
  endfacet
  facet normal -1 -0 -0
    outer loop
      vertex 78 -1 9.34264
      vertex 78 -1 10
      vertex 78 0.42132 7.92132
    endloop
  endfacet
  facet normal -1 0 -0
    outer loop
      vertex 78 0.42132 7.92132
      vertex 78 -1 10
      vertex 78 4.5 10
    endloop
  endfacet
  facet normal -1 -0 0
    outer loop
      vertex 78 1 7.9
      vertex 78 4.5 10
      vertex 78 4.5 4
    endloop
  endfacet
  facet normal -1 -0 0
    outer loop
      vertex 78 0.42132 7.92132
      vertex 78 4.5 10
      vertex 78 1 7.9
    endloop
  endfacet
  facet normal -1 -0 0
    outer loop
      vertex 78 0.4 7.9
      vertex 78 0.42132 7.92132
      vertex 78 1 7.9
    endloop
  endfacet
  facet normal -1 0 0
    outer loop
      vertex 78 1 7.9
      vertex 78 4.5 4
      vertex 78 1 4
    endloop
  endfacet
  facet normal 0 -1 0
    outer loop
      vertex 86 1 4
      vertex 86 1 7.9
      vertex 78 1 7.9
    endloop
  endfacet
  facet normal -0 -1 -0
    outer loop
      vertex 78 1 4
      vertex 86 1 4
      vertex 78 1 7.9
    endloop
  endfacet
  facet normal 1 0 0
    outer loop
      vertex 86 1 7.9
      vertex 86 4.5 10
      vertex 86 -1 10
    endloop
  endfacet
  facet normal 1 0 -0
    outer loop
      vertex 86 -1 10
      vertex 86 -1 9.34264
      vertex 86 0.42132 7.92132
    endloop
  endfacet
  facet normal 1 0 0
    outer loop
      vertex 86 1 7.9
      vertex 86 -1 10
      vertex 86 0.42132 7.92132
    endloop
  endfacet
  facet normal 1 0 0
    outer loop
      vertex 86 0.4 7.9
      vertex 86 1 7.9
      vertex 86 0.42132 7.92132
    endloop
  endfacet
  facet normal 1 0 0
    outer loop
      vertex 86 1 4
      vertex 86 4.5 4
      vertex 86 1 7.9
    endloop
  endfacet
  facet normal 1 0 0
    outer loop
      vertex 86 4.5 4
      vertex 86 4.5 10
      vertex 86 1 7.9
    endloop
  endfacet
  facet normal 0 1 0
    outer loop
      vertex 78 4.5 4
      vertex 78 4.5 10
      vertex 86 4.5 4
    endloop
  endfacet
  facet normal 0 1 0
    outer loop
      vertex 86 4.5 4
      vertex 78 4.5 10
      vertex 86 4.5 10
    endloop
  endfacet
  facet normal -1 -0 -0
    outer loop
      vertex 78 49 4
      vertex 78 49 10
      vertex 78 52.5 4
    endloop
  endfacet
  facet normal -1 0 -0
    outer loop
      vertex 78 52.5787 7.52132
      vertex 78 49 10
      vertex 78 54.5 10
    endloop
  endfacet
  facet normal -1 0 -0
    outer loop
      vertex 78 52.5 7.5
      vertex 78 49 10
      vertex 78 52.5787 7.52132
    endloop
  endfacet
  facet normal -1 -0 0
    outer loop
      vertex 78 52.5 7.5
      vertex 78 52.5787 7.52132
      vertex 78 52.6 7.5
    endloop
  endfacet
  facet normal -1 0 0
    outer loop
      vertex 78 52.5 4
      vertex 78 49 10
      vertex 78 52.5 7.5
    endloop
  endfacet
  facet normal -1 0 0
    outer loop
      vertex 78 52.5787 7.52132
      vertex 78 54.5 10
      vertex 78 54.5 9.44264
    endloop
  endfacet
  facet normal 0 -1 0
    outer loop
      vertex 78 49 10
      vertex 78 49 4
      vertex 86 49 4
    endloop
  endfacet
  facet normal 0 -1 0
    outer loop
      vertex 86 49 10
      vertex 78 49 10
      vertex 86 49 4
    endloop
  endfacet
  facet normal 1 0 -0
    outer loop
      vertex 86 49 10
      vertex 86 49 4
      vertex 86 52.5 4
    endloop
  endfacet
  facet normal 1 -0 0
    outer loop
      vertex 86 52.6 7.5
      vertex 86 49 10
      vertex 86 52.5 7.5
    endloop
  endfacet
  facet normal 1 -0 0
    outer loop
      vertex 86 52.5 7.5
      vertex 86 49 10
      vertex 86 52.5 4
    endloop
  endfacet
  facet normal 1 -0 -0
    outer loop
      vertex 86 52.5787 7.52132
      vertex 86 49 10
      vertex 86 52.6 7.5
    endloop
  endfacet
  facet normal 1 -0 0
    outer loop
      vertex 86 54.5 9.44264
      vertex 86 49 10
      vertex 86 52.5787 7.52132
    endloop
  endfacet
  facet normal 1 0 0
    outer loop
      vertex 86 54.5 10
      vertex 86 49 10
      vertex 86 54.5 9.44264
    endloop
  endfacet
  facet normal 0 1 0
    outer loop
      vertex 86 52.5 7.5
      vertex 86 52.5 4
      vertex 78 52.5 7.5
    endloop
  endfacet
  facet normal 0 1 -0
    outer loop
      vertex 78 52.5 7.5
      vertex 86 52.5 4
      vertex 78 52.5 4
    endloop
  endfacet
  facet normal -1 0 0
    outer loop
      vertex 92.5 16.5 3.5
      vertex 92.5 16.5 0.5
      vertex 92.5 5.5 3.5
    endloop
  endfacet
  facet normal -1 0 0
    outer loop
      vertex 92.5 5.5 3.5
      vertex 92.5 16.5 0.5
      vertex 92.5 5.5 0.5
    endloop
  endfacet
  facet normal 1 0 0
    outer loop
      vertex 5 47.5 0.5
      vertex 5 47.5 3.5
      vertex 5 36.5 3.5
    endloop
  endfacet
  facet normal 1 0 0
    outer loop
      vertex 5 36.5 0.5
      vertex 5 47.5 0.5
      vertex 5 36.5 3.5
    endloop
  endfacet
  facet normal -0.885456 0.464723 0
    outer loop
      vertex 43.1162 27.4573 0.5
      vertex 43.1162 27.4573 4
      vertex 44.006 29.1525 0.5
    endloop
  endfacet
  facet normal -0.885456 0.464723 0
    outer loop
      vertex 44.006 29.1525 0.5
      vertex 43.1162 27.4573 4
      vertex 44.006 29.1525 4
    endloop
  endfacet
  facet normal -1 -0 -0
    outer loop
      vertex 43.1162 25.5427 0.5
      vertex 43.1162 25.5427 4
      vertex 43.1162 27.4573 0.5
    endloop
  endfacet
  facet normal -1 0 0
    outer loop
      vertex 43.1162 27.4573 0.5
      vertex 43.1162 25.5427 4
      vertex 43.1162 27.4573 4
    endloop
  endfacet
  facet normal -0.885456 -0.464723 -0
    outer loop
      vertex 43.1162 25.5427 0.5
      vertex 44.006 23.8475 0.5
      vertex 43.1162 25.5427 4
    endloop
  endfacet
  facet normal -0.885456 -0.464723 0
    outer loop
      vertex 43.1162 25.5427 4
      vertex 44.006 23.8475 0.5
      vertex 44.006 23.8475 4
    endloop
  endfacet
  facet normal -0.568065 -0.822984 0
    outer loop
      vertex 44.006 23.8475 4
      vertex 44.006 23.8475 0.5
      vertex 45.5816 22.7599 0.5
    endloop
  endfacet
  facet normal -0.568065 -0.822984 0
    outer loop
      vertex 45.5816 22.7599 4
      vertex 44.006 23.8475 4
      vertex 45.5816 22.7599 0.5
    endloop
  endfacet
  facet normal -0.120536 -0.992709 0
    outer loop
      vertex 45.5816 22.7599 4
      vertex 45.5816 22.7599 0.5
      vertex 47.4821 22.5292 0.5
    endloop
  endfacet
  facet normal -0.120536 -0.992709 0
    outer loop
      vertex 47.4821 22.5292 4
      vertex 45.5816 22.7599 4
      vertex 47.4821 22.5292 0.5
    endloop
  endfacet
  facet normal 0.354605 -0.935016 0
    outer loop
      vertex 47.4821 22.5292 4
      vertex 47.4821 22.5292 0.5
      vertex 49.2723 23.2081 0.5
    endloop
  endfacet
  facet normal 0.354605 -0.935016 0
    outer loop
      vertex 49.2723 23.2081 4
      vertex 47.4821 22.5292 4
      vertex 49.2723 23.2081 0.5
    endloop
  endfacet
  facet normal 0.748511 -0.663123 0
    outer loop
      vertex 49.2723 23.2081 4
      vertex 49.2723 23.2081 0.5
      vertex 50.5418 24.6411 0.5
    endloop
  endfacet
  facet normal 0.748511 -0.663123 0
    outer loop
      vertex 50.5418 24.6411 4
      vertex 49.2723 23.2081 4
      vertex 50.5418 24.6411 0.5
    endloop
  endfacet
  facet normal 0.970942 -0.239316 0
    outer loop
      vertex 50.5418 24.6411 4
      vertex 50.5418 24.6411 0.5
      vertex 51 26.5 0.5
    endloop
  endfacet
  facet normal 0.970942 -0.239316 0
    outer loop
      vertex 51 26.5 4
      vertex 50.5418 24.6411 4
      vertex 51 26.5 0.5
    endloop
  endfacet
  facet normal 0.970942 0.239316 0
    outer loop
      vertex 51 26.5 0.5
      vertex 50.5418 28.3589 0.5
      vertex 50.5418 28.3589 4
    endloop
  endfacet
  facet normal 0.970942 0.239316 -0
    outer loop
      vertex 51 26.5 4
      vertex 51 26.5 0.5
      vertex 50.5418 28.3589 4
    endloop
  endfacet
  facet normal 0.748511 0.663123 0
    outer loop
      vertex 50.5418 28.3589 0.5
      vertex 49.2723 29.7919 0.5
      vertex 49.2723 29.7919 4
    endloop
  endfacet
  facet normal 0.748511 0.663123 -0
    outer loop
      vertex 50.5418 28.3589 4
      vertex 50.5418 28.3589 0.5
      vertex 49.2723 29.7919 4
    endloop
  endfacet
  facet normal 0.354605 0.935016 0
    outer loop
      vertex 47.4821 30.4708 0.5
      vertex 47.4821 30.4708 4
      vertex 49.2723 29.7919 0.5
    endloop
  endfacet
  facet normal 0.354605 0.935016 0
    outer loop
      vertex 49.2723 29.7919 0.5
      vertex 47.4821 30.4708 4
      vertex 49.2723 29.7919 4
    endloop
  endfacet
  facet normal -0.120536 0.992709 0
    outer loop
      vertex 45.5816 30.2401 0.5
      vertex 45.5816 30.2401 4
      vertex 47.4821 30.4708 0.5
    endloop
  endfacet
  facet normal -0.120536 0.992709 0
    outer loop
      vertex 47.4821 30.4708 0.5
      vertex 45.5816 30.2401 4
      vertex 47.4821 30.4708 4
    endloop
  endfacet
  facet normal -0.568065 0.822984 0
    outer loop
      vertex 44.006 29.1525 0.5
      vertex 44.006 29.1525 4
      vertex 45.5816 30.2401 0.5
    endloop
  endfacet
  facet normal -0.568065 0.822984 0
    outer loop
      vertex 45.5816 30.2401 0.5
      vertex 44.006 29.1525 4
      vertex 45.5816 30.2401 4
    endloop
  endfacet
  facet normal 0 0 -1
    outer loop
      vertex 32 47.5 3.5
      vertex 32 36.5 3.5
      vertex 5 47.5 3.5
    endloop
  endfacet
  facet normal 0 0 -1
    outer loop
      vertex 5 47.5 3.5
      vertex 32 36.5 3.5
      vertex 5 36.5 3.5
    endloop
  endfacet
  facet normal 0 0 -1
    outer loop
      vertex 92.5 16.5 3.5
      vertex 92.5 5.5 3.5
      vertex 62 16.5 3.5
    endloop
  endfacet
  facet normal 0 0 -1
    outer loop
      vertex 62 16.5 3.5
      vertex 92.5 5.5 3.5
      vertex 62 5.5 3.5
    endloop
  endfacet
  facet normal 0 -0.707107 -0.707107
    outer loop
      vertex 86 0.42132 7.92132
      vertex 86 -1 9.34264
      vertex 78 0.42132 7.92132
    endloop
  endfacet
  facet normal 7.61889e-018 -0.707107 -0.707107
    outer loop
      vertex 78 0.42132 7.92132
      vertex 86 -1 9.34264
      vertex 78 -1 9.34264
    endloop
  endfacet
  facet normal -3.65423e-020 -0.707107 0.707107
    outer loop
      vertex 86 0.4 7.9
      vertex 86 0.42132 7.92132
      vertex 78 0.42132 7.92132
    endloop
  endfacet
  facet normal 0 -0.707107 0.707107
    outer loop
      vertex 78 0.4 7.9
      vertex 86 0.4 7.9
      vertex 78 0.42132 7.92132
    endloop
  endfacet
  facet normal 0 0 -1
    outer loop
      vertex 86 1 7.9
      vertex 86 0.4 7.9
      vertex 78 1 7.9
    endloop
  endfacet
  facet normal 0 0 -1
    outer loop
      vertex 78 1 7.9
      vertex 86 0.4 7.9
      vertex 78 0.4 7.9
    endloop
  endfacet
  facet normal 0 -0 1
    outer loop
      vertex 78 4.5 10
      vertex 78 -1 10
      vertex 86 -1 10
    endloop
  endfacet
  facet normal 0 0 1
    outer loop
      vertex 86 4.5 10
      vertex 78 4.5 10
      vertex 86 -1 10
    endloop
  endfacet
  facet normal 0 -1 0
    outer loop
      vertex 78 -1 10
      vertex 78 -1 9.34264
      vertex 86 -1 9.34264
    endloop
  endfacet
  facet normal 0 -1 0
    outer loop
      vertex 86 -1 10
      vertex 78 -1 10
      vertex 86 -1 9.34264
    endloop
  endfacet
  facet normal 0 0 -1
    outer loop
      vertex 86 52.6 7.5
      vertex 86 52.5 7.5
      vertex 78 52.6 7.5
    endloop
  endfacet
  facet normal 0 0 -1
    outer loop
      vertex 78 52.6 7.5
      vertex 86 52.5 7.5
      vertex 78 52.5 7.5
    endloop
  endfacet
  facet normal -4.59796e-020 0.707107 0.707107
    outer loop
      vertex 86 52.5787 7.52132
      vertex 86 52.6 7.5
      vertex 78 52.6 7.5
    endloop
  endfacet
  facet normal 0 0.707107 0.707107
    outer loop
      vertex 78 52.5787 7.52132
      vertex 86 52.5787 7.52132
      vertex 78 52.6 7.5
    endloop
  endfacet
  facet normal 0 0.707107 -0.707107
    outer loop
      vertex 86 54.5 9.44264
      vertex 86 52.5787 7.52132
      vertex 78 54.5 9.44264
    endloop
  endfacet
  facet normal -9.36701e-018 0.707107 -0.707107
    outer loop
      vertex 78 54.5 9.44264
      vertex 86 52.5787 7.52132
      vertex 78 52.5787 7.52132
    endloop
  endfacet
  facet normal 0 1 0
    outer loop
      vertex 78 54.5 9.44264
      vertex 78 54.5 10
      vertex 86 54.5 9.44264
    endloop
  endfacet
  facet normal 0 1 0
    outer loop
      vertex 86 54.5 9.44264
      vertex 78 54.5 10
      vertex 86 54.5 10
    endloop
  endfacet
  facet normal 0 -0 1
    outer loop
      vertex 78 54.5 10
      vertex 78 49 10
      vertex 86 49 10
    endloop
  endfacet
  facet normal 0 0 1
    outer loop
      vertex 86 54.5 10
      vertex 78 54.5 10
      vertex 86 49 10
    endloop
  endfacet
  facet normal 0 -0 1
    outer loop
      vertex 43.1162 27.4573 4
      vertex 43.1162 25.5427 4
      vertex 44.006 23.8475 4
    endloop
  endfacet
  facet normal 0 0 1
    outer loop
      vertex 47.4821 22.5292 4
      vertex 43.1162 27.4573 4
      vertex 45.5816 22.7599 4
    endloop
  endfacet
  facet normal 0 0 1
    outer loop
      vertex 45.5816 22.7599 4
      vertex 43.1162 27.4573 4
      vertex 44.006 23.8475 4
    endloop
  endfacet
  facet normal -0 0 1
    outer loop
      vertex 49.2723 23.2081 4
      vertex 43.1162 27.4573 4
      vertex 47.4821 22.5292 4
    endloop
  endfacet
  facet normal -0 0 1
    outer loop
      vertex 50.5418 24.6411 4
      vertex 43.1162 27.4573 4
      vertex 49.2723 23.2081 4
    endloop
  endfacet
  facet normal -0 0 1
    outer loop
      vertex 51 26.5 4
      vertex 43.1162 27.4573 4
      vertex 50.5418 24.6411 4
    endloop
  endfacet
  facet normal 0 -0 1
    outer loop
      vertex 50.5418 28.3589 4
      vertex 43.1162 27.4573 4
      vertex 51 26.5 4
    endloop
  endfacet
  facet normal 0 -0 1
    outer loop
      vertex 49.2723 29.7919 4
      vertex 43.1162 27.4573 4
      vertex 50.5418 28.3589 4
    endloop
  endfacet
  facet normal 0 -0 1
    outer loop
      vertex 47.4821 30.4708 4
      vertex 43.1162 27.4573 4
      vertex 49.2723 29.7919 4
    endloop
  endfacet
  facet normal 0 -0 1
    outer loop
      vertex 45.5816 30.2401 4
      vertex 43.1162 27.4573 4
      vertex 47.4821 30.4708 4
    endloop
  endfacet
  facet normal 0 -0 1
    outer loop
      vertex 44.006 29.1525 4
      vertex 43.1162 27.4573 4
      vertex 45.5816 30.2401 4
    endloop
  endfacet
endsolid OpenSCAD_Model
